<?xml version="1.0" encoding="utf-8"?><svg version="1.1" id="Layer_1" xmlns="http://www.w3.org/2000/svg" xmlns:xlink="http://www.w3.org/1999/xlink" x="0px" y="0px" viewBox="0 0 116.28 122.88" style="enable-background:new 0 0 116.28 122.88" xml:space="preserve"><style type="text/css">.st0{fill-rule:evenodd;clip-rule:evenodd;}</style><g><path class="st0" d="M71.51,0l2.64,6.46l6.96,0.52l-5.33,4.51l1.66,6.78l-5.94-3.67l-5.94,3.67l1.66-6.78L61.9,6.98l6.96-0.52 L71.51,0L71.51,0L71.51,0z M0,118.49h12.18V37.33c0-0.77,0.63-1.4,1.41-1.4c4.29,0,9.77,0,15.93,0.01l1.29-5.29l-5.33-4.51 l6.96-0.52l2.64-6.46l0,0l2.64,6.46l6.96,0.52l-5.33,4.51l1.3,5.3l13.12,0.01l1.3-5.31l-5.33-4.51l6.96-0.52l2.64-6.46l0,0 l2.64,6.46l6.96,0.52l-5.33,4.51l1.3,5.32l13.11,0.01l1.31-5.34l-5.33-4.51L81,25.61l2.64-6.46l0,0l2.64,6.46l6.96,0.52l-5.33,4.51 l1.31,5.35c5.27,0,9.89,0.01,13.47,0.01c0.78,0,1.4,0.63,1.4,1.4v81.09h12.18v4.4H0V118.49L0,118.49L0,118.49z M31.56,35.93 l7.08,0.01l-3.54-2.19L31.56,35.93L31.56,35.93z M55.8,35.96l7.15,0.01l-3.58-2.21L55.8,35.96L55.8,35.96z M80.04,35.98l7.22,0.01 l-3.62-2.24L80.04,35.98L80.04,35.98z M47.23,0l2.64,6.46l6.96,0.52l-5.33,4.51l1.66,6.78l-5.94-3.67l-5.94,3.67l1.66-6.78 l-5.33-4.51l6.96-0.52L47.23,0L47.23,0L47.23,0z M26.49,100.2h7.97c0.26,0,0.47,0.21,0.47,0.47v8.03c0,0.26-0.21,0.47-0.47,0.47 h-7.97c-0.26,0-0.47-0.21-0.47-0.47v-8.03C26.02,100.41,26.23,100.2,26.49,100.2L26.49,100.2L26.49,100.2z M81.27,100.2h7.97 c0.26,0,0.47,0.21,0.47,0.47v8.03c0,0.26-0.21,0.47-0.47,0.47h-7.97c-0.26,0-0.47-0.21-0.47-0.47v-8.03 C80.79,100.41,81,100.2,81.27,100.2L81.27,100.2L81.27,100.2z M67.33,71.26h7.97c0.26,0,0.47,0.21,0.47,0.47v8.03 c0,0.26-0.21,0.47-0.47,0.47h-7.97c-0.26,0-0.47-0.21-0.47-0.47v-8.03C66.86,71.47,67.07,71.26,67.33,71.26L67.33,71.26 L67.33,71.26z M81.27,71.26h7.97c0.26,0,0.47,0.21,0.47,0.47v8.03c0,0.26-0.21,0.47-0.47,0.47h-7.97c-0.26,0-0.47-0.21-0.47-0.47 v-8.03C80.79,71.47,81,71.26,81.27,71.26L81.27,71.26L81.27,71.26z M81.27,85.73h7.97c0.26,0,0.47,0.21,0.47,0.47v8.04 c0,0.26-0.21,0.47-0.47,0.47h-7.97c-0.26,0-0.47-0.21-0.47-0.47V86.2C80.79,85.94,81,85.73,81.27,85.73L81.27,85.73L81.27,85.73z M67.33,85.73h7.97c0.26,0,0.47,0.21,0.47,0.47v8.04c0,0.26-0.21,0.47-0.47,0.47h-7.97c-0.26,0-0.47-0.21-0.47-0.47V86.2 C66.86,85.94,67.07,85.73,67.33,85.73L67.33,85.73L67.33,85.73z M67.33,100.2h7.97c0.26,0,0.47,0.21,0.47,0.47v8.03 c0,0.26-0.21,0.47-0.47,0.47h-7.97c-0.26,0-0.47-0.21-0.47-0.47v-8.03C66.86,100.41,67.07,100.2,67.33,100.2L67.33,100.2 L67.33,100.2z M40.42,71.26h7.97c0.26,0,0.47,0.21,0.47,0.47v8.03c0,0.26-0.21,0.47-0.47,0.47h-7.97c-0.26,0-0.47-0.21-0.47-0.47 v-8.03C39.95,71.47,40.16,71.26,40.42,71.26L40.42,71.26L40.42,71.26z M26.49,71.26h7.97c0.26,0,0.47,0.21,0.47,0.47v8.03 c0,0.26-0.21,0.47-0.47,0.47h-7.97c-0.26,0-0.47-0.21-0.47-0.47v-8.03C26.02,71.47,26.23,71.26,26.49,71.26L26.49,71.26 L26.49,71.26z M26.49,85.73h7.97c0.26,0,0.47,0.21,0.47,0.47v8.04c0,0.26-0.21,0.47-0.47,0.47h-7.97c-0.26,0-0.47-0.21-0.47-0.47 V86.2C26.02,85.94,26.23,85.73,26.49,85.73L26.49,85.73L26.49,85.73z M40.42,85.73h7.97c0.26,0,0.47,0.21,0.47,0.47v8.04 c0,0.26-0.21,0.47-0.47,0.47h-7.97c-0.26,0-0.47-0.21-0.47-0.47V86.2C39.95,85.94,40.16,85.73,40.42,85.73L40.42,85.73L40.42,85.73 z M40.42,100.2h7.97c0.26,0,0.47,0.21,0.47,0.47v8.03c0,0.26-0.21,0.47-0.47,0.47h-7.97c-0.26,0-0.47-0.21-0.47-0.47v-8.03 C39.95,100.41,40.16,100.2,40.42,100.2L40.42,100.2L40.42,100.2z M22.67,44.28h4.46v5.2h4.88v-5.2h4.49v14.88h-4.49v-6.03h-4.88 v6.03h-4.46V44.28L22.67,44.28L22.67,44.28z M38.89,51.73c0-2.43,0.65-4.32,1.97-5.67c1.32-1.35,3.14-2.03,5.5-2.03 c2.4,0,4.26,0.66,5.57,2c1.31,1.33,1.95,3.19,1.95,5.58c0,1.74-0.28,3.16-0.85,4.28c-0.57,1.11-1.39,1.98-2.47,2.6 c-1.08,0.62-2.41,0.93-4.02,0.93c-1.63,0-2.98-0.26-4.05-0.8c-1.07-0.54-1.93-1.38-2.59-2.54C39.23,54.92,38.89,53.47,38.89,51.73 L38.89,51.73L38.89,51.73z M43.35,51.75c0,1.5,0.27,2.58,0.81,3.24c0.55,0.65,1.29,0.98,2.22,0.98c0.96,0,1.7-0.32,2.23-0.97 c0.53-0.64,0.79-1.8,0.79-3.46c0-1.4-0.27-2.42-0.82-3.07c-0.55-0.64-1.3-0.97-2.23-0.97c-0.9,0-1.63,0.33-2.18,0.98 C43.63,49.15,43.35,50.23,43.35,51.75L43.35,51.75L43.35,51.75z M54.74,44.28h13.59v3.68h-4.56v11.2l-4.46,0V47.96h-4.56 L54.74,44.28L54.74,44.28L54.74,44.28z M70.33,44.28h11.95v3.18h-7.47v2.37h6.93v3.04h-6.93v2.93h7.69v3.37H70.33V44.28 L70.33,44.28L70.33,44.28z M84.91,44.28h4.46v11.22h6.98v3.66H84.91V44.28L84.91,44.28L84.91,44.28z M61.71,65.07h33.62 c0.56,0,1.01,0.54,1.01,1.2v48.48c0,0.66-0.45,1.2-1.01,1.2l-33.62,0c-0.56,0-1.01-0.54-1.01-1.2V66.28 C60.7,65.61,61.15,65.07,61.71,65.07L61.71,65.07L61.71,65.07z M20.8,65h33.63c0.56,0,1.01,0.54,1.01,1.2v48.55 c0,0.66-0.45,1.2-1.01,1.2l-33.63,0c-0.56,0-1.01-0.54-1.01-1.2V66.2C19.79,65.54,20.24,65,20.8,65L20.8,65L20.8,65z"/></g></svg>