<?xml version="1.0" encoding="iso-8859-1"?>
<!-- Generator: Adobe Illustrator 19.0.0, SVG Export Plug-In . SVG Version: 6.00 Build 0)  -->
<svg version="1.1"
		 id="Layer_1"
		 xmlns="http://www.w3.org/2000/svg"
		 xmlns:xlink="http://www.w3.org/1999/xlink"
		 x="0px"
		 y="0px"
		 viewBox="0 0 374.639 374.639"
		 style="enable-background:new 0 0 374.639 374.639;"
		 xml:space="preserve">
	<g>
		<rect x="19.316"
					y="77.532"
					style="fill:#EDE5C0;"
					width="336.006"
					height="297.107" />
		<g>
			<g>
				<rect x="118.314"
							y="241.639"
							style="fill:#D6CEAA;"
							width="71"
							height="133" />
				<rect x="123.314"
							y="246.639"
							style="fill:#2D4151;"
							width="61"
							height="123" />
				<path style="opacity:0.2;fill:#FCFAFA;enable-background:new    ;"
							d="M180.748,250.999v114.909h-48.001
				C132.747,365.907,174.868,321.432,180.748,250.999z" />
				<rect x="120.814"
							y="276.139"
							style="fill:#D6CEAA;"
							width="66"
							height="5" />
			</g>
			<g>
				<rect x="185.325"
							y="241.639"
							style="fill:#D6CEAA;"
							width="71"
							height="133" />
				<rect x="190.325"
							y="246.639"
							style="fill:#2D4151;"
							width="61"
							height="123" />
				<path style="opacity:0.2;fill:#FCFAFA;enable-background:new    ;"
							d="M247.758,250.999v114.909h-48
				C199.758,365.907,241.878,321.432,247.758,250.999z" />
				<rect x="187.825"
							y="276.139"
							style="fill:#D6CEAA;"
							width="66"
							height="5" />
			</g>
		</g>
		<g>
			<rect x="271.218"
						y="241.639"
						style="fill:#D6CEAA;"
						width="71"
						height="133" />
			<rect x="276.218"
						y="246.639"
						style="fill:#2D4151;"
						width="61"
						height="123" />
			<path style="opacity:0.2;fill:#FCFAFA;enable-background:new    ;"
						d="M333.651,250.999v114.909h-48
			C285.651,365.907,327.771,321.432,333.651,250.999z" />
			<rect x="273.718"
						y="276.139"
						style="fill:#D6CEAA;"
						width="66"
						height="5" />
		</g>
		<g>
			<rect x="32.421"
						y="241.639"
						style="fill:#D6CEAA;"
						width="71"
						height="133" />
			<rect x="37.421"
						y="246.639"
						style="fill:#2D4151;"
						width="61"
						height="123" />
			<path style="opacity:0.2;fill:#FCFAFA;enable-background:new    ;"
						d="M94.855,250.999v114.909h-48
			C46.854,365.907,88.974,321.432,94.855,250.999z" />
			<rect x="34.921"
						y="276.139"
						style="fill:#D6CEAA;"
						width="66"
						height="5" />
		</g>
		<g>
			<g>
				<rect x="271.218"
							y="97.032"
							style="fill:#D6CEAA;"
							width="71"
							height="133" />
				<rect x="276.218"
							y="102.032"
							style="fill:#2D4151;"
							width="61"
							height="123" />
				<path style="opacity:0.2;fill:#FCFAFA;enable-background:new    ;"
							d="M333.651,106.392v114.909h-48
				C285.651,221.301,327.771,176.826,333.651,106.392z" />
				<rect x="273.718"
							y="131.532"
							style="fill:#D6CEAA;"
							width="66"
							height="5" />
			</g>
			<g>
				<rect x="32.421"
							y="97.032"
							style="fill:#D6CEAA;"
							width="71"
							height="133" />
				<rect x="37.421"
							y="102.032"
							style="fill:#2D4151;"
							width="61"
							height="123" />
				<path style="opacity:0.2;fill:#FCFAFA;enable-background:new    ;"
							d="M94.855,106.392v114.909h-48
				C46.854,221.301,88.974,176.826,94.855,106.392z" />
				<rect x="34.921"
							y="131.532"
							style="fill:#D6CEAA;"
							width="66"
							height="5" />
			</g>
			<g>
				<rect x="112.02"
							y="97.032"
							style="fill:#D6CEAA;"
							width="71"
							height="133" />
				<rect x="117.02"
							y="102.032"
							style="fill:#2D4151;"
							width="61"
							height="123" />
				<path style="opacity:0.2;fill:#FCFAFA;enable-background:new    ;"
							d="M174.453,106.392v114.909h-48
				C126.453,221.301,168.573,176.826,174.453,106.392z" />
				<rect x="114.52"
							y="131.532"
							style="fill:#D6CEAA;"
							width="66"
							height="5" />
			</g>
			<g>
				<rect x="191.619"
							y="97.032"
							style="fill:#D6CEAA;"
							width="71"
							height="133" />
				<rect x="196.619"
							y="102.032"
							style="fill:#2D4151;"
							width="61"
							height="123" />
				<path style="opacity:0.2;fill:#FCFAFA;enable-background:new    ;"
							d="M254.052,106.392v114.909h-48.001
				C206.052,221.301,248.172,176.826,254.052,106.392z" />
				<rect x="194.119"
							y="131.532"
							style="fill:#D6CEAA;"
							width="66"
							height="5" />
			</g>
		</g>
		<g>
			<g>
				<rect x="302.971"
							y="307.639"
							style="fill:#A67C52;"
							width="11"
							height="53" />
				<path style="fill:#46CC59;"
							d="M308.471,327.639L308.471,327.639c-12.703,0-23-10.297-23-23v-30c0-12.703,10.297-23,23-23l0,0
				c12.703,0,23,10.297,23,23v30C331.471,317.342,321.174,327.639,308.471,327.639z" />
				<polygon style="fill:#F2F2F2;"
								 points="317.438,374.639 299.504,374.639 296.206,345.639 320.736,345.639 			" />
			</g>
			<g>
				<rect x="60.668"
							y="307.639"
							style="fill:#A67C52;"
							width="11"
							height="53" />
				<path style="fill:#46CC59;"
							d="M66.168,327.639L66.168,327.639c-12.703,0-23-10.297-23-23v-30c0-12.703,10.297-23,23-23l0,0
				c12.703,0,23,10.297,23,23v30C89.168,317.342,78.871,327.639,66.168,327.639z" />
				<polygon style="fill:#F2F2F2;"
								 points="75.135,374.639 57.201,374.639 53.903,345.639 78.433,345.639 			" />
			</g>
		</g>
		<rect x="177.653"
					y="309.199"
					style="fill:#D6CEAA;"
					width="19.333"
					height="26.333" />
		<g>
			<g>
				<rect x="108.682"
							y="24.424"
							style="fill:#ED4C58;"
							width="157.274"
							height="50.608" />
				<path style="fill:#666666;"
							d="M268.457,77.532H106.182V21.924h162.274v55.608H268.457z M111.182,72.532h152.274V26.924H111.182
				V72.532z" />
			</g>
			<g>
				<path style="fill:#EDE5C0;"
							d="M119.604,36.975h2.895v10.336h13.023V36.975h2.894v24.392h-2.894V49.998h-13.023v11.369h-2.895
				C119.604,61.367,119.604,36.975,119.604,36.975z" />
				<path style="fill:#EDE5C0;"
							d="M162.704,61.988c-1.861,0-3.566-0.322-5.116-0.964c-1.55-0.643-2.894-1.533-4.031-2.67
				c-1.137-1.137-2.022-2.492-2.653-4.065c-0.632-1.573-0.947-3.279-0.947-5.116s0.316-3.543,0.947-5.116
				c0.631-1.573,1.515-2.928,2.653-4.065c1.137-1.137,2.48-2.027,4.031-2.67c1.55-0.642,3.256-0.964,5.116-0.964
				c1.861,0,3.566,0.322,5.116,0.964c1.55,0.644,2.894,1.533,4.031,2.67c1.137,1.137,2.021,2.492,2.653,4.065
				c0.632,1.574,0.948,3.279,0.948,5.116c0,1.838-0.316,3.543-0.948,5.116c-0.632,1.574-1.515,2.928-2.653,4.065
				c-1.137,1.137-2.48,2.027-4.031,2.67C166.27,61.666,164.564,61.988,162.704,61.988z M162.704,59.301
				c1.424,0,2.727-0.264,3.91-0.793c1.182-0.528,2.199-1.252,3.049-2.17c0.849-0.918,1.51-1.992,1.981-3.221
				c0.47-1.229,0.706-2.544,0.706-3.945s-0.236-2.716-0.706-3.945c-0.471-1.229-1.132-2.303-1.981-3.222
				c-0.85-0.918-1.867-1.642-3.049-2.17c-1.183-0.528-2.486-0.792-3.91-0.792s-2.727,0.264-3.91,0.792
				c-1.183,0.529-2.2,1.252-3.049,2.17c-0.85,0.919-1.511,1.993-1.981,3.222c-0.471,1.229-0.706,2.544-0.706,3.945
				s0.235,2.716,0.706,3.945c0.47,1.229,1.131,2.303,1.981,3.221c0.849,0.919,1.866,1.642,3.049,2.17
				C159.976,59.037,161.279,59.301,162.704,59.301z" />
				<path style="fill:#EDE5C0;"
							d="M203.358,39.663h-8.062v21.705h-2.895V39.663h-8.062v-2.687h19.018L203.358,39.663L203.358,39.663
				z" />
				<path style="fill:#EDE5C0;"
							d="M213.658,36.975h15.331v2.687h-12.437v7.648h11.61v2.687h-11.61v8.682h13.057v2.687h-15.952
				L213.658,36.975L213.658,36.975z" />
				<path style="fill:#EDE5C0;"
							d="M240.978,36.975h2.895V58.68h11.163v2.687h-14.057L240.978,36.975L240.978,36.975z" />
			</g>
		</g>
		<g>
			<polygon style="fill:#F9C032;"
							 points="134.82,0 138.01,6.464 145.143,7.501 139.981,12.532 141.2,19.637 134.82,16.283 
			128.439,19.637 129.658,12.532 124.496,7.501 131.629,6.464 		" />
			<polygon style="fill:#F9C032;"
							 points="239.82,0 243.01,6.464 250.143,7.501 244.981,12.532 246.2,19.637 239.82,16.283 
			233.439,19.637 234.658,12.532 229.496,7.501 236.629,6.464 		" />
			<polygon style="fill:#F9C032;"
							 points="213.57,0 216.76,6.464 223.893,7.501 218.731,12.532 219.95,19.637 213.57,16.283 
			207.189,19.637 208.408,12.532 203.246,7.501 210.379,6.464 		" />
			<polygon style="fill:#F9C032;"
							 points="187.32,0 190.51,6.464 197.643,7.501 192.481,12.532 193.7,19.637 187.32,16.283 
			180.939,19.637 182.158,12.532 176.996,7.501 184.129,6.464 		" />
			<polygon style="fill:#F9C032;"
							 points="161.07,0 164.26,6.464 171.393,7.501 166.231,12.532 167.45,19.637 161.07,16.283 
			154.689,19.637 155.908,12.532 150.746,7.501 157.879,6.464 		" />
		</g>
		<rect x="9.604"
					y="77.532"
					style="fill:#EDE5C0;"
					width="355.431"
					height="9" />
		<rect x="19.316"
					y="86.532"
					style="fill:#D6CEAA;"
					width="336.006"
					height="5" />
	</g>
	<g>
	</g>
	<g>
	</g>
	<g>
	</g>
	<g>
	</g>
	<g>
	</g>
	<g>
	</g>
	<g>
	</g>
	<g>
	</g>
	<g>
	</g>
	<g>
	</g>
	<g>
	</g>
	<g>
	</g>
	<g>
	</g>
	<g>
	</g>
	<g>
	</g>
</svg>