<svg xmlns="http://www.w3.org/2000/svg" viewBox="0 0 3333 3099" shape-rendering="geometricPrecision" text-rendering="geometricPrecision" image-rendering="optimizeQuality" fill-rule="evenodd" clip-rule="evenodd"><path d="M0 2842h400V516c0-22 18-40 40-40h81l38-156-148-125 194-14L678 1l73 180 194 14-148 125 38 156h345l38-157-148-125 194-14 73-180 73 180 194 14-148 125 38 157h344l38-157-148-125 194-14 73-180 73 180 194 14-148 125 39 158h344l39-158-148-125 194-14 73-180 73 180 194 14-148 125 39 158h80c22 0 40 18 40 40v2324h400v257H0v-257zM566 475h226l-113-70-113 70zm658 0h227l-114-70-113 70zm658 1h230l-115-71-115 71zm658 1h232l-116-72-116 72zM760 2287h228c7 0 14 6 14 14v230c0 7-6 14-14 14H760c-7 0-14-6-14-14v-230c0-7 6-14 14-14zm1570 0h228c7 0 14 6 14 14v230c0 7-6 14-14 14h-228c-7 0-14-6-14-14v-230c0-7 6-14 14-14zm-399-829h228c7 0 14 6 14 14v230c0 7-6 14-14 14h-228c-7 0-14-6-14-14v-230c0-7 6-14 14-14zm399 0h228c7 0 14 6 14 14v230c0 7-6 14-14 14h-228c-7 0-14-6-14-14v-230c0-7 6-14 14-14zm0 415h228c7 0 14 6 14 14v230c0 7-6 14-14 14h-228c-7 0-14-6-14-14v-230c0-7 6-14 14-14zm-399 0h228c7 0 14 6 14 14v230c0 7-6 14-14 14h-228c-7 0-14-6-14-14v-230c0-7 6-14 14-14zm0 415h228c7 0 14 6 14 14v230c0 7-6 14-14 14h-228c-7 0-14-6-14-14v-230c0-7 6-14 14-14zm-771-829h228c7 0 14 6 14 14v230c0 7-6 14-14 14h-228c-7 0-14-6-14-14v-230c0-7 6-14 14-14zm-399 0h228c7 0 14 6 14 14v230c0 7-6 14-14 14H761c-7 0-14-6-14-14v-230c0-7 6-14 14-14zm0 415h228c7 0 14 6 14 14v230c0 7-6 14-14 14H761c-7 0-14-6-14-14v-230c0-7 6-14 14-14zm399 0h228c7 0 14 6 14 14v230c0 7-6 14-14 14h-228c-7 0-14-6-14-14v-230c0-7 6-14 14-14zm0 415h228c7 0 14 6 14 14v230c0 7-6 14-14 14h-228c-7 0-14-6-14-14v-230c0-7 6-14 14-14zM651 717h128v149h140V717h128v427H919V971H779v173H651V717zm465 214c0-70 19-124 57-163s90-58 157-58c69 0 122 19 159 57s56 92 56 160c0 50-8 91-24 123s-40 57-71 74c-31 18-69 27-115 27-47 0-85-8-116-23s-55-40-74-73-29-75-29-124zm128 0c0 43 8 74 23 93 16 19 37 28 64 28s49-9 64-28c15-18 23-51 23-99 0-40-8-69-24-88s-37-28-64-28c-26 0-47 9-62 28-16 19-24 50-24 93zm326-214h389v105h-131v321h-128V822h-131V717zm447 0h343v91h-214v68h198v87h-198v84h220v97h-349V717zm418 0h128v322h200v105h-328V717zm-665 565h964c16 0 29 16 29 35v1389c0 19-13 35-29 35h-964c-16 0-29-16-29-35V1317c0-19 13-35 29-35zm-1173-2h964c16 0 29 16 29 35v1392c0 19-13 35-29 35H597c-16 0-29-16-29-35V1315c0-19 13-35 29-35z"/></svg>