<?xml version="1.0" encoding="iso-8859-1"?>
<!-- Generator: Adobe Illustrator 19.0.0, SVG Export Plug-In . SVG Version: 6.00 Build 0)  -->
<svg version="1.1" id="Layer_1" xmlns="http://www.w3.org/2000/svg" xmlns:xlink="http://www.w3.org/1999/xlink" x="0px" y="0px"
	 viewBox="0 0 512 512" style="enable-background:new 0 0 512 512;" xml:space="preserve">
<g>
	<g>
		<path d="M501.801,148.348H388.739V30.172c0-5.633-4.567-10.199-10.199-10.199H133.462c-5.633,0-10.199,4.566-10.199,10.199
			v118.176H10.199C4.566,148.348,0,152.915,0,158.548v323.28c0,5.633,4.566,10.199,10.199,10.199h491.602
			c5.632,0,10.199-4.566,10.199-10.199v-323.28C512,152.915,507.433,148.348,501.801,148.348z M123.262,471.628H20.398V168.747
			h102.864V471.628z M293.689,471.628h-27.49v-27.831c0-5.633-4.567-10.199-10.199-10.199c-5.633,0-10.199,4.566-10.199,10.199
			v27.831h-27.49v-76.788h75.378V471.628z M368.34,471.629h-54.253v0v-86.987c0-5.633-4.567-10.199-10.199-10.199h-95.777
			c-5.633,0-10.199,4.566-10.199,10.199v86.987h-54.252V40.372H368.34V471.629z M491.602,471.628H388.739V168.747h102.863V471.628z"
			/>
	</g>
</g>
<g>
	<g>
		<path d="M232.995,163.169h-58.218c-5.633,0-10.199,4.566-10.199,10.199v58.218c0,5.633,4.566,10.199,10.199,10.199h58.218
			c5.633,0,10.199-4.566,10.199-10.199v-58.218C243.194,167.735,238.628,163.169,232.995,163.169z M222.795,221.387h-37.82v-37.82
			h37.82V221.387z"/>
	</g>
</g>
<g>
	<g>
		<path d="M337.223,163.169h-58.218c-5.632,0-10.199,4.566-10.199,10.199v58.218c0,5.633,4.567,10.199,10.199,10.199h58.218
			c5.632,0,10.199-4.566,10.199-10.199v-58.218C347.423,167.735,342.855,163.169,337.223,163.169z M327.024,221.387h-37.82v-37.82
			h37.82V221.387z"/>
	</g>
</g>
<g>
	<g>
		<path d="M467.973,183.019h-56.156c-5.632,0-10.199,4.566-10.199,10.199v56.155c0,5.633,4.567,10.199,10.199,10.199h56.156
			c5.632,0,10.199-4.566,10.199-10.199v-56.155C478.172,187.585,473.605,183.019,467.973,183.019z M457.774,239.173h-35.757v-35.756
			h35.757V239.173z"/>
	</g>
</g>
<g>
	<g>
		<path d="M467.973,282.441h-56.156c-5.632,0-10.199,4.566-10.199,10.199v56.156c0,5.633,4.567,10.199,10.199,10.199h56.156
			c5.632,0,10.199-4.566,10.199-10.199v-56.156C478.172,287.008,473.605,282.441,467.973,282.441z M457.774,338.597h-35.757V302.84
			h35.757V338.597z"/>
	</g>
</g>
<g>
	<g>
		<path d="M467.973,381.982h-56.156c-5.632,0-10.199,4.566-10.199,10.199v56.155c0,5.633,4.567,10.199,10.199,10.199h56.156
			c5.632,0,10.199-4.566,10.199-10.199v-56.155C478.172,386.548,473.605,381.982,467.973,381.982z M457.774,438.136h-35.757V402.38
			h35.757V438.136z"/>
	</g>
</g>
<g>
	<g>
		<path d="M99.808,183.019H43.654c-5.633,0-10.199,4.566-10.199,10.199v56.155c0,5.633,4.566,10.199,10.199,10.199h56.155
			c5.633,0,10.199-4.566,10.199-10.199v-56.155C110.008,187.585,105.441,183.019,99.808,183.019z M89.609,239.173H53.853v-35.756
			h35.756V239.173z"/>
	</g>
</g>
<g>
	<g>
		<path d="M99.808,282.441H43.654c-5.633,0-10.199,4.566-10.199,10.199v56.156c0,5.633,4.566,10.199,10.199,10.199h56.155
			c5.633,0,10.199-4.566,10.199-10.199v-56.156C110.008,287.008,105.441,282.441,99.808,282.441z M89.609,338.597H53.853V302.84
			h35.756V338.597z"/>
	</g>
</g>
<g>
	<g>
		<path d="M99.808,381.982H43.654c-5.633,0-10.199,4.566-10.199,10.199v56.155c0,5.633,4.566,10.199,10.199,10.199h56.155
			c5.633,0,10.199-4.566,10.199-10.199v-56.155C110.008,386.548,105.441,381.982,99.808,381.982z M89.609,438.136H53.853V402.38
			h35.756V438.136z"/>
	</g>
</g>
<g>
	<g>
		<path d="M232.995,266.458h-58.218c-5.633,0-10.199,4.566-10.199,10.199v58.218c0,5.633,4.566,10.199,10.199,10.199h58.218
			c5.633,0,10.199-4.566,10.199-10.199v-58.218C243.194,271.024,238.628,266.458,232.995,266.458z M222.795,324.676h-37.82v-37.82
			h37.82V324.676z"/>
	</g>
</g>
<g>
	<g>
		<path d="M337.223,266.458h-58.218c-5.632,0-10.199,4.566-10.199,10.199v58.218c0,5.633,4.567,10.199,10.199,10.199h58.218
			c5.632,0,10.199-4.566,10.199-10.199v-58.218C347.423,271.024,342.855,266.458,337.223,266.458z M327.024,324.676h-37.82v-37.82
			h37.82V324.676z"/>
	</g>
</g>
<g>
	<g>
		<path d="M256,404.49c-5.633,0-10.199,4.566-10.199,10.199v0.938c0,5.633,4.566,10.199,10.199,10.199
			c5.632,0,10.199-4.566,10.199-10.199v-0.938C266.199,409.056,261.632,404.49,256,404.49z"/>
	</g>
</g>
<g>
	<g>
		<path d="M275.35,65.267c-4.027,0-8.053,1.445-8.053,4.853v25.298h-20.548V70.119c0-3.408-4.027-4.853-8.053-4.853
			c-4.028,0-8.054,1.445-8.054,4.853v65.674c0,3.304,4.027,4.956,8.054,4.956c4.027,0,8.053-1.652,8.053-4.956V107.81h20.548v27.982
			c0,3.304,4.027,4.956,8.053,4.956c4.027,0,8.054-1.652,8.054-4.956V70.119C283.404,66.712,279.377,65.267,275.35,65.267z"/>
	</g>
</g>
<g>
</g>
<g>
</g>
<g>
</g>
<g>
</g>
<g>
</g>
<g>
</g>
<g>
</g>
<g>
</g>
<g>
</g>
<g>
</g>
<g>
</g>
<g>
</g>
<g>
</g>
<g>
</g>
<g>
</g>
</svg>
