<?xml version="1.0" standalone="no"?><svg xmlns="http://www.w3.org/2000/svg" viewBox="0 0 1440 320"><path fill="#a3d9ff" fill-opacity="2" d="M0,32L26.7,48C53.3,64,107,96,160,106.7C213.3,117,267,107,320,90.7C373.3,75,427,53,480,37.3C533.3,21,587,11,640,37.3C693.3,64,747,128,800,133.3C853.3,139,907,85,960,74.7C1013.3,64,1067,96,1120,106.7C1173.3,117,1227,107,1280,138.7C1333.3,171,1387,245,1413,282.7L1440,320L1440,0L1413.3,0C1386.7,0,1333,0,1280,0C1226.7,0,1173,0,1120,0C1066.7,0,1013,0,960,0C906.7,0,853,0,800,0C746.7,0,693,0,640,0C586.7,0,533,0,480,0C426.7,0,373,0,320,0C266.7,0,213,0,160,0C106.7,0,53,0,27,0L0,0Z"></path></svg>