<?xml version="1.0" encoding="utf-8"?>
<!-- Generator: Adobe Illustrator 25.0.1, SVG Export Plug-In . SVG Version: 6.00 Build 0)  -->
<svg version="1.1" id="Layer_1" xmlns="http://www.w3.org/2000/svg" xmlns:xlink="http://www.w3.org/1999/xlink" x="0px" y="0px"
	 viewBox="0 0 430 430" style="enable-background:new 0 0 430 430;" xml:space="preserve">
<style type="text/css">
	.st0{fill:#121331;}
	.st1{fill:#08a88a;}
</style>
<g id="_x35_42">
	<path class="st0" d="M311.7,381.1H118.2c-30.9,0-56-25.1-56-56v-3.4c0-3.3,2.7-6,6-6h293.6c3.3,0,6,2.7,6,6v3.4
		C367.7,356,342.6,381.1,311.7,381.1z M74.3,327.7c1.4,23,20.5,41.4,43.9,41.4h193.6c23.4,0,42.6-18.3,43.9-41.4H74.3z"/>
	<path class="st0" d="M334.9,301.1H93c-14.3,0-26-11.7-26-26s11.7-26,26-26h242c14.3,0,26,11.7,26,26S349.3,301.1,334.9,301.1z
		 M93,261c-7.7,0-14,6.3-14,14s6.3,14,14,14h242c7.7,0,14-6.3,14-14s-6.3-14-14-14H93z"/>
	<path class="st1" d="M316.6,234.9c-1.4,0-2.8,0-4.1-0.1c-12-0.7-19.8-4.4-26.7-7.6c-6.7-3.1-12.5-5.9-21.8-5.9c0,0-0.1,0-0.1,0
		c-9.4,0-15.3,2.8-22,6.1c-7.1,3.4-15.1,7.3-27.2,7.3c-0.1,0-0.1,0-0.2,0c-12.1,0-20-3.9-26.9-7.4c-6.6-3.3-12.2-6.1-21.5-6.1
		c0,0,0,0-0.1,0c-9.2,0-15,2.7-21.7,5.9c-6.9,3.2-14.7,6.9-26.8,7.6c-16.1,1-33.7-3.8-52.2-14.3c-2.8-1.6-3.8-5-2.4-7.9l13.3-26.9
		c1-2,3.1-3.3,5.4-3.3h266.9c2.3,0,4.4,1.3,5.4,3.4l13.3,27c1.4,2.9,0.3,6.3-2.4,7.9C347.8,230.1,331.7,234.9,316.6,234.9z
		 M263.9,209.2c0,0,0.1,0,0.1,0c12,0,19.6,3.6,26.9,7c6.5,3,12.6,5.9,22.4,6.5c12.4,0.7,26.1-2.6,40.6-10l-9.1-18.5H85.3l-9.1,18.4
		c14.6,7.4,28.2,10.8,40.6,10.1c9.7-0.6,15.9-3.5,22.4-6.5c7.3-3.4,14.9-7,26.8-7c0,0,0,0,0.1,0c12.1,0,19.9,3.9,26.8,7.3
		c6.6,3.3,12.3,6.1,21.6,6.1c0,0,0.1,0,0.1,0c9.3,0,15.2-2.8,21.9-6.1C243.7,213.1,251.7,209.2,263.9,209.2z"/>
	<path class="st0" d="M360.2,167.6H69.7c-4.1,0-7.5-3.4-7.5-7.5c0-61.3,49.9-111.2,111.2-111.2h83.1c61.3,0,111.2,49.9,111.2,111.2
		C367.7,164.2,364.4,167.6,360.2,167.6z M74.3,155.6h281.4c-2.4-52.6-45.9-94.7-99.1-94.7h-83.1C120.2,60.9,76.7,103,74.3,155.6z"/>
	<path class="st0" d="M281.8,127.6c0,0-0.2,0-0.2,0c-3.3-0.1-6-2.8-5.9-6.1c0.1-3.3,2.8-6,6.1-5.9c3.3,0,6,2.7,6,6
		C287.8,124.9,285.1,127.6,281.8,127.6z"/>
	<path class="st0" d="M248.3,100.9c0,0-0.2,0-0.2,0c-3.3-0.1-6-2.8-5.9-6.1c0.1-3.3,2.8-6,6.1-5.9c3.3,0,6,2.7,6,6
		C254.3,98.2,251.7,100.9,248.3,100.9z"/>
	<path class="st0" d="M215.1,127.6c0,0-0.2,0-0.2,0c-3.3-0.1-6-2.8-5.9-6.1c0.1-3.3,2.7-5.9,6-5.9c0,0,0.1,0,0.1,0c3.3,0,6,2.7,6,6
		C221.1,124.9,218.4,127.6,215.1,127.6z"/>
	<path class="st0" d="M148.8,127.6c0,0-0.2,0-0.2,0c-3.3-0.1-6-2.8-5.9-6.1c0.1-3.3,2.7-5.9,6-5.9c0,0,0.1,0,0.1,0c3.3,0,6,2.7,6,6
		C154.8,124.9,152.1,127.6,148.8,127.6z"/>
	<path class="st0" d="M181.8,100.9c0,0-0.2,0-0.2,0c-3.3-0.1-6-2.8-5.9-6.1c0.1-3.3,2.7-5.9,6-5.9c0,0,0.1,0,0.1,0c3.3,0,6,2.7,6,6
		C187.8,98.2,185.1,100.9,181.8,100.9z"/>
</g>
</svg>
