<?xml version="1.0" encoding="utf-8"?>
<!-- Generator: Adobe Illustrator 25.0.1, SVG Export Plug-In . SVG Version: 6.00 Build 0)  -->
<svg version="1.1" id="Layer_1" xmlns="http://www.w3.org/2000/svg" xmlns:xlink="http://www.w3.org/1999/xlink" x="0px" y="0px"
	 viewBox="0 0 430 430" style="enable-background:new 0 0 430 430;" xml:space="preserve">
<style type="text/css">
	.st0{fill:#121331;}
	.st1{fill:#08a88a;}
</style>
<g>
	<path class="st0" d="M180.4,218.1c-2.8,0-5.3-1.9-5.9-4.8l-1-4.8c0-0.1,0-0.2,0-0.2L144.8,69.9l-20.9,4.3l19,91.7
		c0.7,3.2-1.4,6.4-4.7,7.1c-3.2,0.7-6.4-1.4-7.1-4.7L111,70.8c-0.3-1.6,0-3.2,0.9-4.5c0.9-1.3,2.2-2.3,3.8-2.6l32.6-6.8
		c3.2-0.7,6.4,1.4,7.1,4.7l30,144.5c0,0.1,0,0.1,0,0.2l1,4.6c0.7,3.2-1.4,6.4-4.6,7.1C181.2,218.1,180.8,218.1,180.4,218.1z"/>
	<path class="st0" d="M213.3,227.7c-3.2,0-5.9-2.5-6-5.8l-4.7-124.8l-21.3,0.8l4.1,109.2c0,0,0,0.1,0,0.1l0.2,4.2
		c0.1,3.3-2.4,6.1-5.8,6.2c-3.3,0.1-6.1-2.4-6.2-5.8l-0.2-4.2c0,0,0-0.1,0-0.1l-4.4-115.1c-0.1-1.6,0.5-3.1,1.6-4.3
		c1.1-1.2,2.6-1.9,4.2-1.9l33.3-1.3c3.3-0.1,6.1,2.5,6.2,5.8l5,130.8c0.1,3.3-2.5,6.1-5.8,6.2C213.5,227.6,213.4,227.7,213.3,227.7z
		"/>
	<path class="st0" d="M216.2,227.7c-3.3,0-6-2.7-6-6V54.9c0-3.3,2.7-6,6-6h33.3c3.3,0,6,2.7,6,6v157.3c0,3.3-2.7,6-6,6s-6-2.7-6-6
		V60.9h-21.3v160.8C222.2,225,219.5,227.7,216.2,227.7z"/>
	<path class="st0" d="M252.5,216.3c-0.3,0-0.6,0-0.8-0.1c-3.3-0.5-5.6-3.5-5.1-6.8l19.6-139.3c0.2-1.6,1.1-3,2.3-4
		c1.3-1,2.9-1.4,4.4-1.1l33,4.6c3.3,0.5,5.6,3.5,5.1,6.8l-12.9,91.5c-0.5,3.3-3.5,5.6-6.8,5.1c-3.3-0.5-5.6-3.5-5.1-6.8l12-85.5
		l-21.1-3l-18.8,133.3C258,214.1,255.4,216.3,252.5,216.3z"/>
	<g>
		<path class="st0" d="M131.2,381.1c-1,0-2-0.3-2.9-0.8c-1.7-1-2.9-2.8-3-4.8c-5.6-69.3-11.2-138.7-16.8-208
			c-0.1-1.7,0.4-3.3,1.6-4.6c1.1-1.2,2.7-1.9,4.4-1.9h39.7c1.7,0,3.2,0.7,4.4,1.9c1.1,1.2,1.7,2.8,1.6,4.5l0,0.2
			c0,26.5,24.7,48,55,48c30.3,0,55-21.6,55-48l0-0.2c-0.1-1.6,0.5-3.3,1.6-4.5c1.1-1.2,2.7-1.9,4.4-1.9h39.7c1.7,0,3.3,0.7,4.4,1.9
			c1.1,1.2,1.7,2.9,1.6,4.6l-16.8,208c-0.2,2-1.3,3.8-3,4.8c-1.7,1-3.9,1-5.6,0.1c-17-8.6-44.8-18.8-81.1-18.8
			c-20.1,0-50.4,3.3-81.1,18.8C133,380.9,132.1,381.1,131.2,381.1z M215,349.7c33.5,0,60.2,8.2,78.6,16.3l15.5-192.9h-27.4
			c-3.1,30.6-31.8,54.6-66.7,54.6s-63.6-24-66.7-54.6h-27.4c5.2,64.3,10.4,128.6,15.5,192.9C166.5,352.6,195.4,349.7,215,349.7z"/>
		<path class="st1" d="M271.8,333.2c-0.5,0-0.9-0.1-1.4-0.2c-35.9-8.6-73.7-8.7-109.7-0.3c-3.2,0.8-6.5-1.2-7.2-4.5
			c-0.8-3.2,1.2-6.5,4.5-7.2c37.9-8.9,77.5-8.7,115.3,0.3c3.2,0.8,5.2,4,4.4,7.2C277,331.4,274.5,333.2,271.8,333.2z"/>
	</g>
</g>
</svg>
