<?xml version="1.0" encoding="utf-8"?>
<!-- Generator: Adobe Illustrator 25.0.1, SVG Export Plug-In . SVG Version: 6.00 Build 0)  -->
<svg version="1.1" id="Layer_1" xmlns="http://www.w3.org/2000/svg" xmlns:xlink="http://www.w3.org/1999/xlink" x="0px" y="0px"
	 viewBox="0 0 430 430" style="enable-background:new 0 0 430 430;" xml:space="preserve">
<style type="text/css">
	.st0{fill:none;}
	.st1{fill:#121331;}
	.st2{fill:none;stroke:#121331;stroke-width:12;stroke-linecap:round;stroke-linejoin:round;stroke-miterlimit:10;}
	.st3{fill:#08a88a;}
</style>
<g>
	<g>
		<path class="st0" d="M363.1,251.1c5.4-5.8,8.7-12.9,9.1-20.7c0-0.7,0-1.3,0-2c0-13.3-6.6-25.3-16.6-33.7c-0.3-0.3-0.6-0.5-1-0.8
			c-0.3-0.3-0.7-0.5-1-0.8c-0.8-0.6-1.5-1.1-2.3-1.6c-0.5-0.3-1-0.6-1.5-1c-0.5-0.3-1-0.6-1.5-0.9c-0.5-0.3-1-0.6-1.5-0.9
			c-0.6-0.3-1.2-0.6-1.8-0.9c-0.6-0.3-1.2-0.6-1.8-0.8c-1.2-0.5-2.5-1-3.7-1.5c-1.3-0.4-2.6-0.9-3.9-1.2c-0.4-0.1-0.8-0.2-1.2-0.3
			c-0.4-0.1-0.9-0.2-1.3-0.3c-1.4-0.3-2.7-0.6-4.1-0.9c-34.4-7.5-67.2-20.4-97.3-38.1c-2-1.2-4-2.4-6-3.6c-0.1-0.1-0.3-0.2-0.5-0.3
			c-0.7-0.4-1.3-0.8-2-1.3c-2.3-1.4-4.6-2.9-6.8-4.4c-0.8-0.5-1.6-1.1-2.4-1.6c-0.7-0.5-1.5-1-2.2-1.5c-0.1-0.1-0.1-0.1-0.2-0.1
			c-9.3-6.4-18.4-13.4-27-20.8c-4.5-3.9-9-7.9-13.3-12c0,0,0,0,0,0c0,0-0.1,0-0.1-0.1c-16.5-15.6-42.7-19.2-60.6-5.4
			c-5.4,4.1-9.1,9.8-11.1,16.3"/>
		<path class="st1" d="M363,257c-1.4,0-2.7-0.5-3.8-1.4c-2.5-2.1-2.9-5.9-0.8-8.5c2.3-2.7,4.2-6.1,5.6-9.9
			c3.1-8.5,2.2-18.1-2.5-26.3c-2.2-3.8-4.9-7.3-8.3-10.4c-0.5-0.4-0.9-0.8-1.4-1.2c-0.3-0.2-0.6-0.5-0.8-0.7l-0.3-0.3
			c-0.2-0.1-0.4-0.3-0.6-0.4c-0.6-0.5-1.3-1-2-1.5c-0.4-0.3-0.8-0.6-1.3-0.8c-0.5-0.3-0.9-0.6-1.4-0.8c-0.4-0.2-0.8-0.5-1.3-0.7
			L344,194c-0.5-0.3-1-0.5-1.6-0.8c-0.5-0.2-1-0.5-1.6-0.7c-1.1-0.5-2.2-0.9-3.3-1.3c-1.2-0.4-2.3-0.8-3.4-1c-0.1,0-0.1,0-0.2,0
			c-0.3-0.1-0.6-0.2-0.9-0.2c-0.4-0.1-0.8-0.2-1.1-0.3c-1.4-0.3-2.8-0.6-4.2-0.9c-35.1-7.8-68.5-20.8-99-38.7
			c-1.8-1.1-3.8-2.2-6.1-3.7c-0.1-0.1-0.3-0.2-0.5-0.3c-0.7-0.4-1.4-0.8-2-1.3c-2.2-1.4-4.5-2.9-7-4.5c-0.8-0.5-1.7-1.1-2.5-1.7
			c-0.7-0.5-1.4-1-2.2-1.5c0,0-0.1,0-0.1-0.1l-0.1-0.1c-9-6.2-17.7-12.3-25.8-19.6c-0.6-0.5-1.2-1-1.7-1.6l-0.1-0.1
			c-1.1-1-2.3-2.1-3.4-3.1c-3.1-2.9-6.4-6-9.7-8.7c-0.1-0.1-0.1-0.1-0.2-0.2c-3.2-2.6-6.1-4.7-8.9-6.3c-10.7-6.2-24-7.5-34.9-3.5
			c-6.1,2.3-14.1,7.3-17.9,18.2c-1.1,3.1-4.5,4.8-7.6,3.7c-3.1-1.1-4.8-4.5-3.7-7.6c4.1-12,13-21.1,25-25.6
			c14.1-5.3,31.4-3.6,45.1,4.4c3.4,2,6.9,4.5,10.6,7.5c0,0,0.1,0.1,0.1,0.1c0,0,0.1,0.1,0.1,0.1c3.5,2.9,6.9,6,10.1,9
			c1.1,1,2.2,2,3.3,3.1l0.1,0.1c0.6,0.5,1.1,1,1.7,1.5c7.6,6.8,16,12.7,24.6,18.7c0,0,0.1,0,0.1,0.1l0.2,0.1c0.7,0.5,1.3,0.9,2,1.4
			c0,0,0.1,0.1,0.1,0.1c0.7,0.5,1.5,1,2.3,1.5c2.4,1.6,4.6,3,6.7,4.4c0.7,0.4,1.3,0.8,1.9,1.2c0.1,0,0.2,0.1,0.2,0.2
			c0.1,0,0.1,0.1,0.2,0.1c2.3,1.4,4.2,2.6,6,3.6c29.5,17.3,61.6,29.9,95.5,37.4c1.3,0.3,2.6,0.6,4,0.9c0.5,0.1,1,0.2,1.5,0.3
			c0.5,0.1,1,0.2,1.5,0.4c1.4,0.4,2.8,0.8,4.3,1.3c1.4,0.5,2.8,1,4.1,1.6c0.7,0.3,1.3,0.6,2,0.9c0.7,0.4,1.4,0.7,2,1l0.1,0.1
			c0.5,0.3,1,0.6,1.5,0.9c0.6,0.4,1.1,0.7,1.7,1c0.5,0.3,1.1,0.7,1.7,1.1c0.9,0.6,1.7,1.2,2.5,1.8c0.3,0.2,0.5,0.4,0.8,0.6l0.3,0.2
			c0.4,0.3,0.8,0.6,1.1,0.9c0.6,0.5,1.2,1,1.8,1.6c4.3,3.9,7.9,8.4,10.6,13.4c6.4,11.3,7.6,24.5,3.3,36.3c-1.9,5.2-4.5,9.7-7.6,13.5
			C366.4,256.3,364.7,257,363,257z"/>
		<path class="st2" d="M361,253.2"/>
	</g>
	<path class="st1" d="M346.6,314c-6,0-11.9-1.5-17.3-4.4l-6-3.2c-0.1,0-0.2-0.1-0.2-0.1l-0.3-0.2c-2.9-1.6-4-5.2-2.4-8.1
		c1.6-2.9,5.2-4,8.1-2.4l0.1,0.1c0.1,0,0.1,0.1,0.2,0.1l6.2,3.3c5.8,3.1,12.5,3.8,18.9,1.9c6.4-1.9,11.6-6.2,14.7-12
		c6.1-11.4,2.4-25.7-8.5-32.7c-0.1,0-0.1-0.1-0.2-0.1c-0.5-0.3-0.9-0.6-1.4-0.8l-45.7-24.5c0,0-0.1,0-0.1,0l-9.3-5c0,0,0,0-0.1,0
		L244.1,194c0,0,0,0,0,0l-6.9-3.7c-0.1,0-0.1-0.1-0.2-0.1l-59.4-31.8c-0.1,0-0.1-0.1-0.2-0.1l-77.2-41.4c-0.8-0.4-1.6-0.8-2.4-1.1
		c-0.1,0-0.2-0.1-0.3-0.1c-2.9-1.1-5.9-1.7-8.9-1.7c-9.2,0-17.6,5-22,13.1c-3.1,5.8-3.8,12.5-1.9,18.9c1.9,6.4,6.2,11.6,12,14.7
		l3.2,1.7c2.9,1.5,4.1,5.1,2.6,8.1c-1.5,2.9-5.1,4.1-8.1,2.6l-3.4-1.8c-8.6-4.6-15-12.4-17.8-21.8c-2.8-9.4-1.9-19.4,2.8-28
		c6.4-12,18.9-19.4,32.5-19.4c4.6,0,9,0.8,13.2,2.5c0.2,0.1,0.4,0.1,0.6,0.2c1.2,0.5,2.4,1,3.5,1.6l77.3,41.5c0.1,0,0.2,0.1,0.2,0.1
		l59,31.6c0.1,0,0.1,0.1,0.2,0.1l7,3.8c0,0,0,0,0,0l59.2,31.8c0,0,0,0,0,0l9.2,4.9c0,0,0.1,0,0.1,0.1l45.7,24.5
		c0.6,0.3,1.3,0.7,1.9,1.1c0.1,0.1,0.3,0.1,0.4,0.2c16.2,10.3,21.8,31.6,12.7,48.5c-4.6,8.6-12.4,15-21.8,17.8
		C353.8,313.5,350.2,314,346.6,314z M360.4,256.4C360.4,256.4,360.4,256.4,360.4,256.4C360.4,256.4,360.4,256.4,360.4,256.4z
		 M359.6,256C359.6,256,359.6,256,359.6,256C359.6,256,359.6,256,359.6,256z"/>
	<path class="st3" d="M330,261c-2.8,0-5.3-1.9-5.9-4.7c-2.7-12.4-6.8-21.2-12.4-26.1c-0.1,0-0.1-0.1-0.2-0.1l0,0
		c-1.5-1.3-3.1-2.3-4.7-3c-0.7-0.3-1.4-0.6-2.1-0.7c-0.1,0-0.2,0-0.3-0.1c-4.8-1.2-9.8,0.1-15,1.4c-7.5,2-16.1,4.2-25.3-0.7
		c-10.5-5.6-12.8-14.3-14.7-21.3c-1.3-5.1-2.4-9.1-6.1-12.1c-0.1,0-0.1-0.1-0.2-0.1c-0.7-0.6-1.5-1.1-2.5-1.6
		c-0.9-0.5-1.7-0.8-2.6-1.1c0,0-0.1,0-0.1,0c-4.6-1.5-8.6-0.1-13.6,1.6c-6.9,2.4-15.4,5.3-25.9-0.3c-10.5-5.6-12.8-14.3-14.7-21.3
		c-1.4-5.4-2.5-9.6-6.8-12.6c-0.1,0-0.1-0.1-0.2-0.1c-0.5-0.4-1.1-0.7-1.8-1.1c-0.5-0.3-1.1-0.5-1.6-0.7c-4.5-1.6-9.4-0.3-15,1.2
		c-7.5,2-16.1,4.3-25.4-0.2c-10.2-4.9-17.1-15.9-20.4-32.8c-0.6-3.3,1.5-6.4,4.7-7.1c3.3-0.6,6.4,1.5,7.1,4.7
		c2.6,13,7.2,21.1,13.8,24.3c5.3,2.6,10.8,1.1,17.1-0.6c6.7-1.8,14.2-3.8,22.2-0.8c1.1,0.4,2.2,0.9,3.2,1.4c1.2,0.7,2.3,1.3,3.3,2
		l0,0c0,0,0.1,0,0.1,0.1c7.7,5.5,9.7,13.1,11.3,19.2c1.6,6.2,2.8,10.7,8.7,13.8c5.9,3.1,10.3,1.6,16.3-0.4c5.7-2,12.7-4.4,21.1-1.7
		c0.1,0,0.2,0,0.2,0.1c1.5,0.5,3.1,1.2,4.6,2c1.5,0.8,2.9,1.7,4.1,2.7c0.1,0,0.1,0.1,0.2,0.1c6.9,5.5,8.8,12.7,10.4,18.5
		c1.6,6.2,2.8,10.7,8.7,13.8c4.8,2.6,9.5,1.6,16.7-0.3c6.3-1.6,13.4-3.5,21.3-1.4l0,0c0.1,0,0.1,0,0.2,0.1c1.2,0.3,2.4,0.7,3.6,1.3
		c2.7,1.1,5.3,2.7,7.6,4.7c0.1,0.1,0.2,0.1,0.2,0.2c7.7,6.7,13.1,17.4,16.4,32.8c0.7,3.2-1.4,6.4-4.6,7.1
		C330.8,261,330.4,261,330,261z"/>
	<g>
		<path class="st0" d="M326.6,308.1c0,0.7,0,1.3,0,2c-0.4,8.7-4.5,16.6-11,22.6c-3.4,3.2-7.4,5.8-11.9,7.8c0,0,0,0-0.1,0
			c-9.2,4.1-20.5,5.6-32.4,3.1c-5.8-1.2-11.5-2.5-17.2-3.9c-0.1,0-0.3-0.1-0.4-0.1c-3.5-0.9-7-1.8-10.5-2.8c-1.2-0.3-2.3-0.7-3.5-1
			c-0.2-0.1-0.4-0.1-0.5-0.2c-2.1-0.6-4.3-1.2-6.4-1.9c-1.2-0.3-2.3-0.7-3.4-1.1c-5.7-1.8-11.4-3.8-17.1-5.8
			c-5.6-2.1-11.2-4.2-16.8-6.5c-3.3-1.4-6.6-2.8-9.9-4.3c-1.1-0.5-2.2-1-3.3-1.5c-0.9-0.4-1.9-0.9-2.8-1.3c-5-2.3-9.9-4.7-14.8-7.2
			c-1.1-0.6-2.1-1.1-3.2-1.7c-1.3-0.7-2.5-1.3-3.8-2c-1.6-0.9-3.1-1.7-4.7-2.6c-1.4-0.8-2.7-1.5-4.1-2.3c-1.4-0.8-2.7-1.6-4-2.3
			c-9.6-5.6-19-11.7-28.1-18.1c-0.1-0.1-0.2-0.1-0.2-0.2c-16.6-11.7-32.4-24.6-47.2-38.8c-0.7-0.6-1.3-1.3-1.9-1.9
			c-5.9-6.2-10-13.2-12.4-20.3c-0.1-0.2-0.1-0.3-0.2-0.5c-1.5-4.7-2.3-9.5-2.3-14.2c0-0.2,0-0.4,0-0.7c0.2-10.9,4.5-20.8,12.7-27.1
			c3.5-2.7,7.4-4.8,11.4-6.2c16.4-5.7,35.9-0.9,49.1,11.6c0,0,0,0,0.1,0.1l0,0c4.4,4.2,8.9,8.3,13.5,12.2c0,0,0,0,0,0
			c7.8,6.7,16,13,24.4,18.9c0.9,0.6,1.7,1.2,2.6,1.8c1.1,0.8,2.3,1.6,3.4,2.3c2.2,1.5,4.4,3,6.7,4.4c0.2,0.1,0.3,0.2,0.5,0.3
			c1.3,0.8,2.6,1.7,4,2.5c1,0.6,2,1.2,3.1,1.9c31.8,19.1,66.8,32.7,103.5,40.2c0.4,0.1,0.9,0.2,1.3,0.3c0.4,0.1,0.9,0.2,1.3,0.3
			c0.8,0.2,1.6,0.4,2.4,0.7c0.1,0,0.1,0.1,0.2,0.1c1.5,0.5,2.9,1,4.4,1.6c1.1,0.5,2.1,1,3.2,1.5c0.3,0.2,0.7,0.4,1,0.5
			c0.5,0.3,1,0.5,1.5,0.8c0.5,0.3,1,0.6,1.5,0.9c0,0,0.1,0.1,0.1,0.1c0.3,0.2,0.7,0.4,1,0.7c0.3,0.2,0.6,0.4,0.8,0.6
			c0.3,0.2,0.6,0.4,0.9,0.7c9.7,7,16.7,17.2,18.8,28.8h0C326.4,303.3,326.6,305.7,326.6,308.1z"/>
		<path class="st1" d="M283.7,349.9c-9,0-19.2-1.4-31.2-4.3c-0.2,0-0.4-0.1-0.6-0.1c-3.2-0.8-6.7-1.7-10.6-2.8l-1.2-0.3
			c-0.8-0.2-1.6-0.4-2.4-0.7l-0.4-0.1c-2.6-0.8-4.7-1.4-6.6-2c-0.9-0.3-1.8-0.6-2.7-0.8l-0.7-0.2c-5.8-1.8-11.7-3.8-17.3-5.9
			c-5.6-2-11.3-4.3-17-6.6c-3.7-1.5-7-3-10.1-4.3l-0.3-0.1c-1-0.5-2-0.9-3-1.4l-1.6-0.7c0,0-0.1,0-0.1,0c-0.4-0.2-0.8-0.4-1.2-0.6
			c-4.8-2.2-9.7-4.6-14.9-7.3c-1.1-0.6-2.2-1.1-3.3-1.7c-1.3-0.7-2.5-1.4-3.8-2c-1.3-0.7-2.6-1.4-3.9-2.1l-0.9-0.5
			c-1.3-0.7-2.6-1.5-3.9-2.2l-0.2-0.1c-1.4-0.8-2.8-1.6-4.1-2.4c-8.1-4.8-16.2-9.9-24-15.2c-1.5-1-3-2-4.5-3.1
			c-0.1,0-0.1-0.1-0.2-0.2c-15.5-10.8-33.4-23.8-47.9-39.1c-0.8-0.9-1.6-1.8-2.4-2.6c-6.3-7.1-10.8-14.6-13.5-22.2
			c-0.1-0.3-0.2-0.5-0.2-0.7c-1.8-5.4-2.7-10.8-2.6-16.1c0-0.3,0-0.6,0-0.8c0.1-2.6,0.5-5.2,1-7.7c3.4-14.9,13.3-25.8,27.8-30.7
			c14-4.7,30.3-2.9,43.7,4.9c3.4,2,6.9,4.4,10.6,7.5c0,0,0.1,0.1,0.1,0.1c0,0,0.1,0.1,0.1,0.1c3.6,2.9,6.9,6.1,10.2,9.1
			c1.1,1.1,2.3,2.1,3.4,3.2c0,0,0.1,0.1,0.1,0.1l1.4,1.3c6.9,6.2,14.8,11.9,22.3,17c0.9,0.6,1.7,1.2,2.6,1.8
			c1.1,0.8,2.3,1.5,3.4,2.3c2.2,1.5,4.4,2.9,6.5,4.3c0.2,0.1,0.4,0.2,0.6,0.4c1.3,0.8,2.5,1.6,3.8,2.4c1,0.6,2,1.2,3,1.8
			c31.3,18.7,65.5,32,101.7,39.5c0.5,0.1,0.9,0.2,1.4,0.3c0.5,0.1,1.1,0.3,1.6,0.4c0.8,0.2,1.7,0.5,2.6,0.8l0,0c0,0,0.1,0,0.1,0
			c0,0,0.1,0,0.1,0c1.6,0.5,3.2,1.1,4.9,1.8c1.2,0.5,2.4,1.1,3.5,1.7c0,0,0.1,0,0.1,0c0.3,0.2,0.6,0.3,1,0.5c0,0,0.1,0,0.1,0.1
			c0.6,0.3,1.1,0.6,1.7,1c0.6,0.4,1.1,0.7,1.7,1c0,0,0,0,0,0c0.4,0.2,0.8,0.5,1.2,0.8c0.3,0.2,0.6,0.4,0.9,0.6
			c0.3,0.2,0.7,0.5,1.1,0.8c6.3,4.6,11.7,10.6,15.5,17.4c2.7,4.7,4.4,9.8,5.3,15.2c1.1,7.2,0.4,14.5-2,21.2l0,0
			c-2.3,6.3-5.6,11.6-9.8,15.9c-3.8,3.9-8.5,7-14,9.2c-0.1,0-0.1,0.1-0.2,0.1C299.3,348.7,292.1,349.9,283.7,349.9z M120.2,272.2
			c1.4,1,2.9,2,4.3,3c7.6,5.2,15.4,10.2,23.3,14.8c1.3,0.8,2.7,1.6,4,2.3l0.2,0.1c1.3,0.7,2.5,1.4,3.8,2.1l0.9,0.5
			c1.2,0.7,2.5,1.4,3.7,2.1c1.2,0.7,2.5,1.3,3.7,2c1,0.5,2.1,1.1,3.2,1.7c5.1,2.6,9.8,5,14.5,7.1c0.1,0,0.1,0.1,0.2,0.1
			c0.3,0.2,0.6,0.3,0.9,0.4l1.7,0.8c1,0.5,2,0.9,3,1.3l0.3,0.1c3,1.3,6.2,2.7,9.8,4.2c5.5,2.3,11.1,4.5,16.5,6.5
			c5.5,2,11.2,4,16.8,5.7l0.7,0.2c0.9,0.3,1.8,0.6,2.6,0.8c2.1,0.7,4.2,1.3,6.3,1.9l0.5,0.1c0.8,0.2,1.6,0.5,2.3,0.7l1.2,0.3
			c3.8,1.1,7.1,2,10.3,2.7c0,0,0.1,0,0.1,0l0.2,0c0,0,0.1,0,0.1,0c20.3,4.9,35.4,5.2,46.1,1l0,0c0.1,0,0.1,0,0.2-0.1
			c3.8-1.5,7.1-3.7,9.7-6.4c3-3,5.4-6.9,7-11.6c0,0,0,0,0,0c1.7-4.7,2.2-10,1.4-15.2c-0.6-3.9-1.9-7.7-3.9-11.1
			c-3-5.2-7.2-9.9-12.2-13.6c-0.3-0.2-0.5-0.4-0.8-0.6c-0.3-0.2-0.5-0.3-0.7-0.5c-0.1,0-0.2-0.1-0.2-0.2c-0.2-0.2-0.4-0.3-0.6-0.4
			c-0.1,0-0.2-0.1-0.3-0.2c0,0,0,0-0.1,0c-0.4-0.3-0.8-0.5-1.2-0.7c-0.5-0.3-0.9-0.5-1.3-0.7c-0.3-0.2-0.7-0.3-1-0.5
			c-0.9-0.4-1.8-0.9-2.8-1.3c-1.3-0.5-2.5-1-3.8-1.4c-0.1,0-0.2-0.1-0.3-0.1c0,0,0,0,0,0c-0.7-0.2-1.4-0.4-2.1-0.6
			c-0.4-0.1-0.8-0.2-1.1-0.3c-0.4-0.1-0.8-0.2-1.2-0.3c-37.5-7.8-73-21.6-105.4-41c-1-0.6-2.1-1.3-3.2-1.9c-1.3-0.8-2.7-1.7-4-2.5
			c0,0-0.1,0-0.1-0.1c-0.1,0-0.2-0.1-0.2-0.1c0,0-0.1-0.1-0.1-0.1c-2.2-1.4-4.5-2.9-6.8-4.5c-1.2-0.8-2.3-1.6-3.5-2.4
			c-0.8-0.6-1.7-1.2-2.6-1.8c-7.8-5.4-16-11.3-23.4-18l-1.5-1.4c-0.1,0-0.1-0.1-0.2-0.2c-1.1-1-2.3-2.1-3.4-3.2
			c-3.2-3-6.5-6-9.8-8.8c-0.1-0.1-0.1-0.1-0.2-0.2c-3.2-2.6-6.1-4.7-8.9-6.3c-10.2-6-23.2-7.4-33.8-3.9c-10.4,3.5-17.4,11.3-19.9,22
			c-0.4,1.8-0.7,3.7-0.7,5.6c0,0.2,0,0.3,0,0.4c0,0.1,0,0.1,0,0.2c-0.1,3.9,0.5,8,1.9,12c0,0.1,0.1,0.2,0.1,0.3l0.1,0.2
			c2.2,6.2,6,12.3,11.2,18.3c0.6,0.7,1.3,1.5,2,2.2c13.8,14.5,31,27.1,46,37.5C120,272,120.1,272.1,120.2,272.2z"/>
	</g>
</g>
</svg>
