<?xml version="1.0" encoding="utf-8"?>
<!-- Generator: Adobe Illustrator 24.1.2, SVG Export Plug-In . SVG Version: 6.00 Build 0)  -->
<svg version="1.1" id="Warstwa_3" xmlns="http://www.w3.org/2000/svg" xmlns:xlink="http://www.w3.org/1999/xlink" x="0px" y="0px"
	 viewBox="0 0 430 430" style="enable-background:new 0 0 430 430;" xml:space="preserve">
<style type="text/css">
	.st0{fill:#121331;}
	.st1{fill:#08a88a;}
	.st2{fill:none;stroke:#08a88a;stroke-width:12.25;stroke-miterlimit:14;}
	.st3{fill-opacity:0;}
	.st4{fill:#131432;}
	.st5{fill:none;}
</style>
<g>
	<path class="st0" d="M218.58,338.58c-1.07,0-2.14-0.01-3.22-0.02c-44.12-0.48-86.29-10.78-125.31-30.62
		c-3.02-1.53-4.22-5.22-2.68-8.24s5.22-4.22,8.24-2.68c37.33,18.98,77.67,28.83,119.89,29.29c42.25,0.46,82.81-8.52,120.53-26.68
		c3.05-1.47,6.71-0.19,8.17,2.86c1.47,3.05,0.19,6.71-2.86,8.18C302.86,329.2,261.58,338.58,218.58,338.58z"/>
	<path class="st0" d="M218.6,381.51c-1.23,0-2.47-0.01-3.7-0.02c-50.83-0.55-99.37-12.41-144.25-35.24
		c-3.01-1.53-4.22-5.22-2.68-8.24c1.53-3.02,5.22-4.22,8.24-2.68c43.19,21.97,89.89,33.38,138.83,33.91
		c46.85,0.5,91.86-9,134.03-28.29l-15.89-33.15L212.93,57.26c-1.46-3.05-0.18-6.71,2.87-8.17c3.05-1.46,6.71-0.18,8.17,2.87
		l120.24,250.55l18.56,38.72c1.46,3.05,0.18,6.7-2.87,8.17C315.54,370.71,268.02,381.51,218.6,381.51z"/>
	<path class="st0" d="M72.75,346.86c-0.94,0-1.89-0.22-2.78-0.67c-3.01-1.54-4.21-5.22-2.68-8.24l43.24-84.84
		c5.49-10.77,11.17-21.92,11.26-22.09c0.06-0.11,0.12-0.22,0.17-0.32c0.29-0.57,4.27-8.38,9.11-17.89
		c6.72-13.21,8.57-16.83,9.15-17.94l-0.01-0.01l0.1-0.21c0.06-0.13,2.8-5.5,6.48-12.72l8.46-16.61c1.76-3.45,2.89-5.67,2.95-5.78
		l0.15-0.28l0,0c0.17-0.34,0.61-1.19,1.83-3.59l12.81-25.14c1.94-3.8,3.27-6.41,3.55-6.97l11.49-22.56l24.93-48.91
		c1.54-3.01,5.22-4.21,8.24-2.68c3.01,1.54,4.21,5.22,2.68,8.24l-54.76,107.46c-0.02,0.05-1.16,2.28-2.94,5.77l-8.46,16.61
		c-3.63,7.13-6.34,12.44-6.45,12.67c-0.06,0.12-0.11,0.23-0.17,0.33l0,0c-0.14,0.27-4.16,8.18-9.1,17.87
		c-9.12,17.91-9.2,18.05-9.23,18.11c0,0,0,0.01,0,0.01l-0.08,0.15c-0.14,0.28-5.15,10.1-11.23,22.03l-43.24,84.84
		C77.13,345.64,74.98,346.86,72.75,346.86z M122.03,230.58L122.03,230.58L122.03,230.58z M145.65,197.71L145.65,197.71
		L145.65,197.71z"/>
	<path class="st1" d="M259.08,282.63c-4.2,0-8.36-0.99-12.21-2.95h0c-6.42-3.27-11.17-8.84-13.4-15.69
		c-2.22-6.85-1.65-14.15,1.62-20.57c6.75-13.24,23.01-18.53,36.25-11.78c13.24,6.75,18.53,23.01,11.78,36.25
		c-3.27,6.42-8.84,11.17-15.69,13.4C264.69,282.19,261.88,282.63,259.08,282.63z M259.13,240.96c-5.36,0-10.53,2.93-13.13,8.03
		c-1.78,3.5-2.1,7.48-0.88,11.22c1.21,3.73,3.81,6.77,7.31,8.56h0c3.5,1.78,7.48,2.1,11.22,0.88c3.74-1.21,6.77-3.81,8.56-7.31
		c3.68-7.22,0.8-16.1-6.43-19.78C263.65,241.48,261.37,240.96,259.13,240.96z"/>
	<path class="st1" d="M174.32,286.02c-4.2,0-8.36-0.99-12.21-2.95h0c-6.42-3.27-11.17-8.84-13.4-15.69
		c-2.22-6.85-1.65-14.15,1.62-20.57c3.27-6.42,8.84-11.17,15.69-13.4c6.85-2.22,14.15-1.65,20.57,1.62
		c6.42,3.27,11.17,8.84,13.4,15.69c2.23,6.85,1.65,14.15-1.62,20.57c-3.27,6.41-8.84,11.17-15.69,13.4
		C179.93,285.58,177.12,286.02,174.32,286.02z M174.36,244.34c-1.53,0-3.06,0.24-4.56,0.73c-3.74,1.21-6.77,3.81-8.56,7.31
		s-2.1,7.48-0.88,11.22c1.21,3.73,3.81,6.77,7.31,8.56c0,0,0,0,0,0c3.5,1.78,7.48,2.1,11.22,0.88c3.74-1.21,6.77-3.81,8.56-7.31
		s2.1-7.48,0.88-11.22c-1.21-3.74-3.81-6.77-7.31-8.56C178.92,244.88,176.64,244.34,174.36,244.34z"/>
	<path class="st1" d="M217.14,201.97c-4.2,0-8.36-0.99-12.21-2.95h0c-6.42-3.27-11.17-8.84-13.4-15.69
		c-2.22-6.85-1.65-14.15,1.62-20.57c3.27-6.42,8.84-11.17,15.69-13.4c6.85-2.22,14.15-1.65,20.57,1.62
		c6.42,3.27,11.17,8.84,13.4,15.69c2.23,6.85,1.65,14.15-1.62,20.57c-3.27,6.42-8.84,11.17-15.69,13.4
		C222.76,201.53,219.94,201.97,217.14,201.97z M217.18,160.29c-1.53,0-3.06,0.24-4.56,0.73c-3.74,1.21-6.77,3.81-8.56,7.31
		s-2.1,7.48-0.88,11.22c1.21,3.73,3.81,6.77,7.31,8.56h0c3.5,1.78,7.48,2.1,11.22,0.88c3.74-1.21,6.77-3.81,8.56-7.31
		s2.1-7.48,0.88-11.22c-1.21-3.74-3.81-6.77-7.31-8.56C221.74,160.83,219.47,160.29,217.18,160.29z"/>
</g>
</svg>
