<svg xmlns="http://www.w3.org/2000/svg" xmlns:xlink="http://www.w3.org/1999/xlink" id="Calque_2_1_" x="0px" y="0px" viewBox="0 0 257.5 108.2" style="enable-background:new 0 0 257.5 108.2;" xml:space="preserve"><style type="text/css">	.st0{fill:#FF8300;}	.st1{opacity:0.3;fill:#FF8300;}</style><path class="st0" d="M80.9,90.2h8.6v-9.1H77.8V68.3V35.6c8.6-1.6,15.1-8.7,15.1-17.1C92.9,8.8,84.4,1,74,1S55.1,8.8,55.1,18.5 c0,8.4,6.5,15.5,15.1,17.1v32.7l0,0v34.4c0,0.5,0.1,0.9,0.3,1.3c0.8,2,3,3,5,2.2c1.1-0.4,2-1.4,2.3-2.6c0.1-0.3,0.2-0.6,0.2-0.9 v-0.1h11.7v-9.7h-8.6v-2.7L80.9,90.2L80.9,90.2z M62.6,18.5C62.6,12.7,67.7,8,74,8s11.4,4.7,11.4,10.5S80.3,29,74,29 S62.6,24.3,62.6,18.5z"></path><path class="st0" d="M26.9,90.4h8.6v-9.1H23.8V68.5V35.8c8.6-1.6,15.1-8.6,15.1-17.1C38.9,9,30.4,1.2,20,1.2S1,9.1,1,18.7 c0,8.4,6.5,15.5,15.1,17.1v32.7l0,0v34.4c0,0.5,0.1,0.9,0.3,1.3c0.8,2,3,3,5,2.2c1.1-0.4,2-1.4,2.3-2.6c0.1-0.3,0.2-0.6,0.2-0.9 v-0.1h11.6v-9.7h-8.6V90.4z M8.6,18.7c0-5.8,5.1-10.5,11.4-10.5s11.4,4.7,11.4,10.5s-5.2,10.5-11.5,10.5S8.6,24.5,8.6,18.7z"></path><path class="st0" d="M135.4,90.4h8.6v-9.1h-11.7V68.5V35.8c8.6-1.6,15.1-8.7,15.1-17.1c0-9.7-8.5-17.5-18.9-17.5s-19,7.9-19,17.5 c0,8.4,6.5,15.5,15.1,17.1v32.7l0,0v34.4c0,0.5,0.1,0.9,0.3,1.3c0.8,2,3,3,5,2.2c1.1-0.4,2-1.4,2.3-2.6c0.1-0.3,0.2-0.6,0.2-0.9 v-0.1h11.7v-9.7h-8.6v-2.7C135.5,90.4,135.4,90.4,135.4,90.4z M117,18.7c0-5.8,5.1-10.5,11.4-10.5c6.3,0,11.4,4.7,11.4,10.5 s-5.1,10.5-11.4,10.5C122.1,29.2,117,24.5,117,18.7z"></path><path class="st0" d="M189.8,90.4h8.6v-9.1h-11.7V68.5V35.8c8.6-1.6,15.1-8.7,15.1-17.1c0-9.7-8.5-17.5-18.9-17.5 C172.4,1.2,164,9,164,18.7c0,8.4,6.5,15.5,15.1,17.1v32.7l0,0v34.4c0,0.5,0.1,0.9,0.3,1.3c0.8,2,3,3,5,2.2c1.1-0.4,2-1.4,2.3-2.6 c0.1-0.3,0.2-0.6,0.2-0.9v-0.1h11.7v-9.7H190v-2.7C190,90.4,189.8,90.4,189.8,90.4z M171.4,18.7c0-5.8,5.1-10.5,11.4-10.5 s11.4,4.7,11.4,10.5s-5.1,10.5-11.4,10.5S171.4,24.5,171.4,18.7z"></path><path class="st1" d="M244.2,90.4h8.6v-9.1h-11.7V68.5V35.8c8.6-1.6,15.1-8.7,15.1-17.1c0-9.7-8.5-17.5-18.9-17.5S218.4,9,218.4,18.7 c0,8.4,6.5,15.5,15.1,17.1v32.7l0,0v34.4c0,0.5,0.1,0.9,0.3,1.3c0.8,2,3,3,5,2.2c1.1-0.4,2-1.4,2.3-2.6c0.1-0.3,0.2-0.6,0.2-0.9 v-0.1H253v-9.7h-8.6v-2.7C244.4,90.4,244.2,90.4,244.2,90.4z M225.8,18.7c0-5.8,5.1-10.5,11.4-10.5s11.4,4.7,11.4,10.5 s-5.1,10.5-11.4,10.5S225.8,24.5,225.8,18.7z"></path></svg>