<?xml version="1.0" encoding="UTF-8" standalone="no"?>
<svg
   xmlns:dc="http://purl.org/dc/elements/1.1/"
   xmlns:cc="http://creativecommons.org/ns#"
   xmlns:rdf="http://www.w3.org/1999/02/22-rdf-syntax-ns#"
   xmlns:svg="http://www.w3.org/2000/svg"
   xmlns="http://www.w3.org/2000/svg"
   xmlns:sodipodi="http://sodipodi.sourceforge.net/DTD/sodipodi-0.dtd"
   xmlns:inkscape="http://www.inkscape.org/namespaces/inkscape"
   version="1.0"
   width="995"
   height="945"
   viewBox="0 0 796 756"
   preserveAspectRatio="xMidYMid meet"
   id="svg8035"
   inkscape:version="0.91 r13725"
   sodipodi:docname="hotel-colour.svg">
  <defs
     id="defs8109" />
  <sodipodi:namedview
     pagecolor="#ffffff"
     bordercolor="#666666"
     borderopacity="1"
     objecttolerance="10"
     gridtolerance="10"
     guidetolerance="10"
     inkscape:pageopacity="0"
     inkscape:pageshadow="2"
     inkscape:window-width="1916"
     inkscape:window-height="1035"
     id="namedview8107"
     showgrid="false"
     fit-margin-top="0"
     fit-margin-left="0"
     fit-margin-right="0"
     fit-margin-bottom="0"
     units="px"
     inkscape:zoom="0.37619871"
     inkscape:cx="654.26157"
     inkscape:cy="954.72407"
     inkscape:window-x="4"
     inkscape:window-y="1"
     inkscape:window-maximized="1"
     inkscape:current-layer="g8039" />
  <metadata
     id="metadata8037">
Created by potrace 1.15, written by Peter Selinger 2001-2017
<rdf:RDF>
  <cc:Work
     rdf:about="">
    <dc:format>image/svg+xml</dc:format>
    <dc:type
       rdf:resource="http://purl.org/dc/dcmitype/StillImage" />
    <dc:title></dc:title>
  </cc:Work>
</rdf:RDF>
</metadata>
  <g
     transform="matrix(0.19636925,0,0,-0.19765133,5.7818463,780.41481)"
     id="g8039"
     style="fill:#000000;stroke:none">
    <g
       id="g8935">
      <path
         id="path8914"
         transform="matrix(4.0739576,0,0,-4.0475316,-29.443746,3948.442)"
         d="M 513.65234 21.757812 L 500.97852 24.427734 L 497.64258 85.798828 L 539.00195 83.796875 L 539.66992 72.457031 L 513.65234 71.789062 L 513.65234 37.769531 L 513.65234 23.759766 L 513.65234 21.757812 z M 416.25977 22.425781 L 401.58398 23.09375 L 401.58398 33.765625 L 417.59375 35.767578 L 416.92578 85.130859 L 429.60156 85.798828 L 430.93555 55.779297 L 430.93555 33.099609 L 444.94336 32.431641 L 446.94531 24.427734 L 416.25977 22.425781 z M 466.95703 22.425781 L 453.61523 24.427734 L 453.61523 89.134766 L 492.30664 87.800781 L 490.97266 73.791016 L 472.96094 73.123047 L 468.29102 72.457031 L 466.95703 59.115234 L 485.63477 56.447266 L 486.30273 45.773438 L 468.29102 45.107422 L 468.95898 35.099609 L 488.9707 33.099609 L 490.30469 25.761719 L 466.95703 22.425781 z M 367.5625 23.09375 L 356.88867 25.761719 L 343.54688 42.4375 L 342.88086 59.115234 L 346.88281 69.789062 L 359.55664 83.130859 L 368.89648 88.466797 L 376.23438 87.132812 C 376.23438 87.132812 376.44218 85.923714 376.71094 84.199219 L 381.57031 82.462891 L 387.57422 77.792969 L 390.09961 73.824219 L 391.57617 75.792969 L 397.58008 63.785156 L 397.58008 42.4375 L 390.24219 29.763672 L 380.9043 24.427734 L 374.90039 23.09375 L 367.5625 23.09375 z M 332.87305 23.759766 L 320.19922 24.427734 L 320.19922 47.107422 L 298.85352 47.775391 L 297.51758 24.427734 L 284.17773 24.427734 L 285.51172 89.800781 L 300.1875 88.466797 L 296.18359 79.794922 L 296.18359 64.451172 L 317.53125 65.119141 L 316.86328 87.800781 L 333.54102 87.800781 L 333.54102 65.119141 L 332.87305 25.09375 L 332.87305 23.759766 z M 368.89648 41.771484 L 376.90039 43.105469 L 382.9043 53.111328 L 381.57031 62.451172 L 382.01758 63.046875 L 376.01172 67.925781 C 373.45075 68.260967 369.5625 69.121094 369.5625 69.121094 L 360.89062 59.783203 L 359.55664 47.107422 L 368.89648 41.771484 z "
         style="fill:#f77533;fill-rule:evenodd;stroke:none;stroke-width:4.0607233px;stroke-linecap:butt;stroke-linejoin:miter;stroke-opacity:1;fill-opacity:1" />
      <path
         id="path8928"
         transform="matrix(4.0739576,0,0,-4.0475316,-29.443746,3948.442)"
         d="M 633.06445 35.822266 L 629.02148 50.726562 L 610.83398 53 L 624.72852 65.630859 L 622.58008 71.441406 L 620.43359 79.021484 L 634.58008 71.189453 L 648.72656 82.304688 L 644.17969 63.357422 L 650.49414 58.810547 L 658.57812 53.253906 L 640.13672 51.484375 L 636.60156 37.337891 L 633.06445 35.822266 z M 580.01367 39.611328 L 575.4668 50.980469 L 557.2793 53.253906 L 569.15234 63.105469 L 568.77344 71.441406 L 566.87891 79.273438 L 581.02539 71.441406 L 597.44531 81.546875 L 592.64453 64.873047 L 596.93945 59.064453 L 605.02344 53.505859 L 586.58203 51.738281 L 583.29883 39.865234 L 580.01367 39.611328 z M 686.87305 40.117188 L 682.32422 51.484375 L 664.38867 51.484375 L 676.00977 63.611328 L 675.63086 71.947266 L 673.73633 79.779297 L 687.88281 71.947266 L 704.30273 82.052734 L 699.50391 65.378906 L 703.79688 59.568359 L 711.88086 54.011719 L 693.43945 52.242188 L 690.15625 40.369141 L 686.87305 40.117188 z "
         style="fill:#e7ac69;fill-opacity:1;fill-rule:evenodd;stroke:none;stroke-width:4.0607233px;stroke-linecap:butt;stroke-linejoin:miter;stroke-opacity:1" />
      <path
         sodipodi:nodetypes="cccccccccccccccccccccccccccccccccccccccc"
         inkscape:connector-curvature="0"
         id="path8898"
         d="m 165.56007,3053.2162 1.10705,-99.5427 28.60765,2.1997 9.94151,-2083.76804 3.29919,-83.1756 20.94615,-0.32928 9.8756,-529.36806 308.43719,-8.75534 497.90569,0 727.0305,8.75534 1546.5921,-13.13299 422.9996,13.13299 8.8124,525.31966 27.5885,7.6773 3.2552,237.47192 4.4063,1221.3682 -4.4063,376.4791 4.4063,315.1918 35.2499,17.5106 -3.2991,98.4648 -543.0752,2.2215 -320.5489,-7.6991 2.1921,450.8994 58.3883,3.3214 8.8125,105.064 -462.6558,8.7553 -374.5309,-4.3777 -207.0935,-13.133 -189.4686,4.3777 -136.5935,8.7553 -361.3121,-4.3776 -268.781,0 -57.28122,-4.3777 4.40627,-109.4416 48.46865,-4.3777 13.2188,-424.6333 -378.93712,-8.7554 -356.90587,0 -114.56238,-8.7553 z"
         style="fill:#b1bce9;fill-opacity:1;fill-rule:evenodd;stroke:none;stroke-width:4.0607233px;stroke-linecap:butt;stroke-linejoin:miter;stroke-opacity:1" />
      <path
         inkscape:connector-curvature="0"
         id="path8912"
         d="m 2954.5505,3055.7626 5.4353,-108.0014 625.0626,2.7 233.719,2.7001 8.153,5.4 -10.8707,102.6013 -233.719,-5.4 -260.8957,0 c 0,0 -127.7301,2.7 -138.6008,2.7 -10.8706,0 -119.5772,-5.4 -119.5772,-5.4 z"
         style="fill:#c4cff7;fill-rule:evenodd;stroke:none;stroke-width:4.0607233px;stroke-linecap:butt;stroke-linejoin:miter;stroke-opacity:1;fill-opacity:1" />
      <path
         inkscape:connector-curvature="0"
         id="path8908"
         d="m 163.51035,3058.4626 0,-105.3013 48.91793,0 815.29902,-2.7001 0,121.5016 -551.68567,-16.2002 -239.15438,2.7 z"
         style="fill:#c4cff7;fill-rule:evenodd;stroke:none;stroke-width:4.0607233px;stroke-linecap:butt;stroke-linejoin:miter;stroke-opacity:1;fill-opacity:1" />
      <path
         inkscape:connector-curvature="0"
         id="path8906"
         d="m 204.27529,871.43433 2.71767,-86.40112 51.6356,2.70003 445.69675,0 309.81369,2.70002 13.5883,-21.60026 5.4353,-515.70668 97.8359,-2.70003 2.7176,8.10008 5.4353,410.40534 -8.1529,116.1015 312.5312,0 13.5883,2.70003 -2.7176,-51.30069 0,-488.70629 108.7065,2.70003 2.7177,108.00138 -10.8707,432.00559 872.3699,-5.40005 -5.4353,-153.90201 0,-372.60483 103.2712,0 5.4353,191.70251 -2.7176,332.1043 315.2489,5.40006 10.8707,-537.30695 108.7065,-5.4001 -13.5883,545.40707 812.5813,-2.70002 16.306,2.70002 0,81.00107 -820.7344,0 -1644.1862,-2.70003 -907.69952,0 -168.49513,-2.70007 z"
         style="fill:#c4cff7;fill-rule:evenodd;stroke:none;stroke-width:4.0607233px;stroke-linecap:butt;stroke-linejoin:miter;stroke-opacity:1;fill-opacity:1" />
      <path
         inkscape:connector-curvature="0"
         id="path8902"
         d="m 250.47557,782.33318 -24.45897,2.70003 -29.8943,-62.10083 -35.32962,-205.20265 -10.87065,-153.90197 62.50625,-45.90062 5.43533,-51.30065 2.71766,-5.40005 89.68289,-10.80015 334.27257,2.70003 -10.87063,8.10012 -5.43535,29.70038 16.30598,13.50018 21.74132,24.30029 27.17664,18.90027 16.30597,37.80046 -24.45898,205.20265 -48.91792,170.10221 -10.87066,21.6003 -21.74129,2.70003 -27.17664,-72.90094 -35.32964,-159.30206 -21.74129,-153.90201 43.48261,-67.50089 35.32961,-16.2002 2.71765,-56.70074 -59.78858,-8.10008 -260.89567,-2.70003 -24.45897,5.40006 -5.43532,32.40041 5.43532,21.6003 43.48262,24.30028 35.32962,56.70074 -27.17663,164.70216 -43.48261,180.90232 z"
         style="fill:#84c06d;fill-rule:evenodd;stroke:none;stroke-width:4.0607233px;stroke-linecap:butt;stroke-linejoin:miter;stroke-opacity:1;fill-opacity:1" />
      <path
         sodipodi:nodetypes="ccccscccccccccccccccccccccccccccccc"
         inkscape:connector-curvature="0"
         id="path8904"
         d="M 3370.353,787.73324 3329.588,722.93238 3305.129,606.83087 3286.1054,382.728 c 0,0 13.5883,-37.80051 24.459,-40.50054 10.8706,-2.70002 43.4826,-40.50053 43.4826,-40.50053 l 0,-43.20056 394.0612,-8.10008 10.8706,2.70003 10.8706,45.90059 19.0237,29.70038 32.612,18.90027 8.153,59.40076 -5.4354,78.301 -24.4589,175.50226 -35.3296,121.5016 -10.8707,2.70003 -21.7413,-16.20021 -35.3296,-105.30139 -29.8943,-153.90196 -5.4353,-121.5016 48.9179,-67.50085 13.5883,-16.2002 -8.153,-43.20056 -70.6592,-13.50018 -269.0487,8.10008 8.153,24.30033 2.7177,27.00036 46.2002,24.30028 29.8943,48.60066 2.7177,45.90058 -48.9179,253.80331 -24.459,64.80082 -2.7177,21.60026 z"
         style="fill:#84c06d;fill-opacity:1;fill-rule:evenodd;stroke:none;stroke-width:4.0607233px;stroke-linecap:butt;stroke-linejoin:miter;stroke-opacity:1" />
      <path
         inkscape:connector-curvature="0"
         id="path8900"
         d="m 1732.9015,737.67956 7.6791,-316.61403 -15.3581,-167.84357 499.1391,-7.62927 15.3582,3.81463 -3.8396,186.91671 7.6791,312.7994 -234.2115,-3.81464 -176.6184,3.81464 z"
         style="fill:#9883a8;fill-rule:evenodd;stroke:none;stroke-width:4.0607233px;stroke-linecap:butt;stroke-linejoin:miter;stroke-opacity:1;fill-opacity:1" />
      <path
         inkscape:connector-curvature="0"
         id="path8910"
         d="m 973.37399,3611.9698 -5.43531,-110.7014 1595.26832,0 459.2851,5.4 0,108.0014 -576.1446,0 -269.0487,5.4001 -190.2364,-10.8001 -201.1071,-5.4001 -130.4478,13.5002 -220.1307,-2.7001 c 0,0 -92.4006,5.4001 -103.2712,5.4001 -10.8707,0 -236.4368,-5.4001 -236.4368,-5.4001 z"
         style="fill:#c4cff7;fill-rule:evenodd;stroke:none;stroke-width:4.0607233px;stroke-linecap:butt;stroke-linejoin:miter;stroke-opacity:1;fill-opacity:1" />
      <path
         sodipodi:nodetypes="ccccsssccssssscccccccccsscccssccccccccccccccccscccssccccccccccccccsscsccccccccccccccscsccccccccccccscccccccsscccccccccccccccscccccccccccccccscsccccsccccccssccccssccccccsccsccccccccsssssssscssccsscccsccccccccccccccssscccssccscccccccccsccsccccscccccccccccscsccccccccccscsccccccscccccsccscccccccccccccccccccccccccccccccccccccccccccscccccccccccccccccccccccccscccccsssccccccccccccccccccccscccccccccsscccssccccccscccccccccccccccsscccccccccccccccccccccscccccsccccsccccccscccscccccccccccsscccccccccscscccccccscccccscscccccssscccscccscccccccccccccsccccccccccccssscccscsccccccccccscccccccccscccsccccccccccccccccccccccccccccccccccsccccccsscccccccscscccssccsscc"
         inkscape:connector-curvature="0"
         id="path8041"
         transform="matrix(4.0739576,0,0,-4.0475316,-29.443746,3948.442)"
         d="m 515.33203,21.603516 -7.85351,0.742187 -8.10157,0.740235 -0.73633,28.90625 c -0.24529,16.800363 -1.718,29.154296 -2.94531,29.154296 -1.47277,0 -2.45508,-2.2237 -2.45508,-4.941406 0,-4.200091 -1.71727,-4.941406 -12.51757,-4.941406 -11.5367,0 -12.2735,-0.493293 -11.53711,-5.681641 0.49092,-4.447155 2.4544,-5.683606 11.29101,-6.177734 9.573,-0.741193 10.31055,-1.234547 10.31055,-8.152344 0,-6.917796 -0.49203,-7.166015 -11.04688,-7.166015 -8.10023,0 -11.04492,-0.987373 -11.04492,-3.705079 0,-2.717705 2.9459,-3.707031 12.27344,-3.707031 12.02762,0 12.27148,-0.245295 12.27148,-7.410156 l 0,-7.41211 -20.86328,0 -20.86328,0 0,29.646485 0,29.648437 -9.82031,0 -9.81836,0 0,-22.236328 0,-22.236328 8.5918,0 c 7.85477,0 8.59179,-0.49236 8.59179,-7.410156 l 0,-7.41211 -24.54687,0 -24.54688,0 0,7.41211 c 0,6.670732 0.73778,7.410156 7.36524,7.410156 l 7.36328,0 0,22.236328 0,22.236328 -13.74609,0 -13.7461,0 6.38281,-7.660156 c 12.02762,-14.082657 6.13665,-43.234522 -9.81836,-49.164062 -11.0456,-4.200091 -22.09117,-2.965655 -30.1914,3.705078 -13.50039,11.612015 -15.71047,32.859719 -4.91016,46.695312 l 4.91016,6.423828 -8.5918,0 -8.5918,0 -1.36914,-14.076172 1.13282,-19.080078 -1.23633,-24.904296 -7.85352,-0.740235 c -8.10023,-0.741192 -8.10156,-0.742887 -8.10156,10.375 l 0,11.365235 -9.81836,0 -9.81836,0 0,-11.117188 c 0,-11.117887 0.001,-11.117188 -8.58984,-11.117188 l -8.5918,0 0,29.646485 0,29.648437 -19.63672,0 -19.63672,0 0,16.058594 0,16.058592 7.36329,0 7.36328,0 0,65.47266 0,36.86328 c -2.87131,0.0489 -45.80518,1.05668 -88.77149,2.06836 -15.85765,0.0103 -33.10896,0.19814 -50.16015,0.59961 l -72.164067,1.72851 0,14.57618 c 0,10.62375 0.980299,14.57812 3.189453,14.57812 2.700077,0 3.682866,45.95372 4.910156,266.08789 0.981847,184.30987 2.209504,266.58204 3.927735,267.07617 1.718231,0.49413 1.962354,2.47078 0.244141,5.43555 -3.927386,7.41192 -14.727844,64.97798 -15.21875,82.51953 -0.736385,16.05917 -0.489536,17.04688 7.365234,23.96485 5.891077,5.43541 7.608799,8.64657 6.626953,12.10546 -1.472769,4.44716 -4.172763,4.94142 -26.509766,5.43555 L 6,912.02344 37.910156,914 c 38.537466,2.22358 872.370744,1.97553 919.253904,-0.24805 l 33.13672,-1.72851 -27,-0.49414 c -14.72769,-0.49413 -27.7369,-0.74121 -28.71875,-0.49414 -4.90923,0.74119 -1.22833,-11.36536 4.9082,-16.30664 l 6.62696,-5.68164 -7.85352,4.19921 c -5.40015,2.96477 -8.10156,6.42392 -8.10156,9.88282 0,2.96477 -0.98036,6.1766 -2.45313,6.91797 -1.47276,0.98825 -2.45507,-1.7306 -2.45507,-6.67188 0,-6.1766 -1.47301,-8.8936 -5.40039,-10.62305 -10.55485,-4.69422 -11.78286,-11.85926 -7.85547,-46.69531 1.96369,-17.54155 4.66395,-36.31849 6.13672,-41.75391 1.47276,-5.18834 1.96357,-10.1299 1.47265,-10.87109 -0.73638,-0.49413 -2.94451,5.93088 -4.9082,14.57813 -3.191,13.83559 -3.68227,14.57596 -3.92774,6.17578 l -0.24609,-9.14063 -29.45508,0 -29.45508,0 -0.24609,7.90625 c -0.24546,6.67073 -0.7361,5.18722 -3.68164,-6.17773 -1.71823,-7.90606 -4.41803,-16.5528 -5.89062,-19.02344 -2.45462,-4.94128 -1.47382,-4.94141 39.02734,-4.94141 38.78293,0 41.72863,0.2462 40.25586,4.19922 -1.22731,3.70596 -0.73592,3.45889 2.45508,-0.49414 3.68192,-4.69422 3.92745,-4.69315 7.60937,3.70703 1.96369,4.94129 5.89172,21.00037 8.5918,35.82422 7.36384,40.76559 7.36402,41.01314 6.13672,19.76563 -1.47277,-22.23578 -7.61036,-52.62611 -11.78321,-57.81446 -1.96369,-2.7177 -1.96306,-3.70607 0.2461,-4.44726 2.45461,-0.98826 3.1914,-56.57752 3.1914,-267.57031 0,-264.11176 -10e-4,-266.335 4.90821,-267.57032 2.94554,-0.74119 5.41015,-2.66797 5.41015,-2.66797 0,0 -0.72696,-15.09754 -1.62109,-15.34375 l -0.12695,-11.85546 -35.52149,-0.5 -5.18359,0.32812 c -20.06595,-0.64649 -56.20653,-0.68671 -91.08789,-0.10156 l -80.51172,1.48242 -0.0625,-5.49219 0.7168,-102.18164 15.30078,-0.0469 0.73633,-15.564456 0.73632,-15.31836 -23.07226,0 -23.07422,0 -2.69922,-8.648437 c -2.45462,-8.647246 -2.45455,-8.893721 7.60938,-15.564453 l 10.0625,-6.669922 -12.51758,-0.742188 -12.51953,-0.740234 -2.94532,-11.119141 c -3.43646,-12.353208 -5.40005,-11.858048 -9.81836,2.22461 l -2.94531,9.388672 -18.6543,-0.742188 -18.41015,-0.740234 -3.92774,-11.119141 -3.68164,-11.117187 -3.68164,11.611328 -3.68164,11.859375 -19.14648,0 -19.14649,0 -2.94531,-11.117188 c -1.71823,-6.176604 -3.68222,-11.117187 -4.66406,-11.117187 -0.73639,0 -2.94583,4.940583 -4.66406,11.117187 -3.191,11.117888 -3.18993,11.117188 -13.99024,11.117188 -10.64717,0 -11.90071,2.199857 -4.18945,6.800781 l -0.16406,0.109375 c 1.50094,2.501599 10.00585,8.505859 10.00586,8.505859 l -0.58008,9.003907 c -0.30185,0.42845 -0.68207,1.08466 -1.14453,2.015625 -0.90093,1.813617 -2.63132,3.62103 -4.51172,4.86914 l -19.67774,0.34375 -0.60351,-9.228515 -26.50977,-1.472657 0,-23.664062 z m -189.00391,2.71875 c 4.66377,0 4.90821,1.728234 4.90821,29.646484 l 0,29.648438 17.91797,0 17.67382,0 -8.58984,-4.447266 c -23.80977,-11.85908 -15.21946,-54.847656 11.04492,-54.847656 17.9187,0 28.22852,10.622531 28.22852,29.152343 0,12.600273 -4.66459,20.75403 -14.72852,25.695313 l -8.59179,4.447266 22.82812,0 22.58399,0 0,-24.707032 0,-24.707031 -8.8379,0 c -6.87275,0 -8.5899,-0.739333 -7.85351,-4.445313 0.73638,-4.447154 0.73556,-4.447241 27.73633,-3.458984 13.74585,0.494128 19.39164,5.435547 6.13672,5.435547 l -7.36328,0 0,27.175781 0,27.177735 13.5,0 13.5,0 0,-29.648438 0,-22.006201 0,-7.640283 15.95507,0 c 9.08208,0 15.95508,0.988318 15.95508,2.470703 0,1.235321 -4.90838,2.470703 -11.04492,2.470703 -11.04577,0 -11.04688,-7.61e-4 -11.04688,8.646484 0,8.400182 0.24536,8.646485 9.81836,8.646485 7.11839,0 9.81836,0.989325 9.81836,3.707031 0,2.717706 -2.69997,3.705078 -9.81836,3.705078 -9.573,0 -9.81836,0.248256 -9.81836,8.648438 l 0,8.646484 12.27344,0 c 11.5367,0 12.27344,0.494288 12.27344,6.423828 0,5.188348 0.98076,6.176739 5.64453,5.435547 5.15469,-0.741192 5.40033,-1.730224 6.13672,-31.130859 0.49092,-28.165332 0.98208,-30.140625 5.40039,-30.140625 4.66377,0 4.91016,1.728111 4.91016,24.705078 l 0,24.707031 1.01171,-0.04687 -0.0664,0.261719 c 0,0 20.01405,0.5 22.51562,0.5 2.50158,0 1.5,9.505859 1.5,9.505859 l 12.00782,-0.248047 c 0,0 7.18713,-0.36082 12.15625,-0.921875 9.26922,0.446099 34.24506,0.88998 92.01367,1.820313 31.17362,0.494128 64.55654,0.987311 74.375,1.234375 l 17.67383,0.248047 0,11.117187 0,11.119137 -249.14258,0 -249.14453,0 0,-11.119137 0,-11.117187 19.63672,0 19.63671,0 0,-29.648438 c 0,-27.91825 0.24639,-29.646484 4.91016,-29.646484 4.17285,0 4.9082,1.728749 4.9082,11.117187 l 0,11.117188 12.27344,0 12.27344,0 0,-12.353516 c 0,-10.623759 0.73748,-12.351557 4.91015,-12.351567 z m 308.05274,14.328125 2.20898,7.660156 c 1.71823,6.423668 3.43832,7.658203 9.82032,7.658203 l 7.36328,0 -5.40039,3.953125 c -4.66377,3.211834 -5.40051,5.436677 -3.92774,11.613281 l 1.47266,7.904297 -5.1543,-4.693359 C 635.60898,68.051875 635.36385,68.050917 628,73.486328 l -6.15625,4.597656 3.05078,-12.640625 -7.95703,-9.947265 c -0.44651,-1.275543 1.01255,-1.527344 5.17188,-1.527344 5.15452,0 7.11701,-1.728663 9.32617,-7.658203 z m -258.92774,0.648437 c -9.11036,-0.273641 -20.5893,5.040413 -17.74414,15.923828 0.42924,9.236049 10.00527,19.480098 19.44336,14.757813 8.17368,-5.478129 8.44694,-17.780779 4.55664,-25.978516 -1.10958,-1.796502 -2.30202,-3.9762 -4.4707,-4.574219 -0.58136,-0.06793 -1.17779,-0.110663 -1.78516,-0.128906 z m 312.98243,3.13086 4.00195,10.005859 15.50977,2.001953 -11.00586,8.003906 5.00195,16.009766 -14.50781,-9.00586 -11.00782,8.50586 c -2.30844,1.783803 2.00196,-13.507813 2.00196,-13.507813 l -9.50586,-9.505859 13.00781,-1.501953 z m -106.82813,1.65625 c 0.98185,0 2.45502,2.2237 3.19141,4.941406 0.98184,3.705962 3.43509,4.941406 9.32617,4.941406 l 8.10156,0 -5.64648,3.953125 c -4.41831,3.211834 -5.39918,5.682759 -4.17188,11.365234 l 1.47266,7.41211 -6.38281,-4.201172 c -6.13654,-3.953027 -6.87254,-3.953002 -13.5,0.988281 -3.7075,2.836091 -5.4357,3.947122 -5.95899,3.574219 l 1.32032,-5.613281 0.50195,-8.003907 -6.73633,-7.53125 c -0.11595,-1.244899 2.09143,-1.943359 6.20898,-1.943359 5.64562,0 8.10019,-1.235444 9.08204,-4.941406 0.73638,-2.717706 2.20956,-4.941407 3.1914,-4.941406 z m -207.11133,0.332031 c 0.42072,0.01237 0.83558,0.04181 1.23829,0.08789 1.50215,0.40568 2.32706,1.884823 3.0957,3.103516 2.69475,5.561167 2.50566,13.906807 -3.15625,17.623047 -6.53775,3.203508 -13.17145,-3.746147 -13.46875,-10.011719 -1.97082,-7.383041 5.9802,-10.988352 12.29101,-10.802734 z m 232.60938,9.921875 c 1.81034,-0.06177 3.71197,0.987845 7.14844,3.08789 0.72388,0.408024 1.3607,0.758123 1.9375,1.070313 2.43256,2.032816 4.70117,3.943359 4.70117,3.943359 l 3.00195,3.501953 -6.57226,13.146485 c -1.80497,1.59998 -4.27744,2.05664 -8.71485,2.05664 -7.36384,0 -9.57209,-1.236451 -11.78125,-6.177734 -4.17284,-9.141374 -3.6822,-11.858528 3.68164,-17.046875 3.06827,-2.34711 4.78732,-3.520262 6.59766,-3.582031 z m 56.31445,1.597656 5.50391,1.501953 6.5039,8.503906 -2.50195,12.507813 -4.00195,2.001953 -16.01172,0 -3.00195,-2.001953 -4.00196,-14.007813 10.00586,-7.505859 z m -367.73242,6.503906 -1.00195,21.013672 4.0039,0 -1.00195,-17.511719 18.01172,0.501953 0,17.009766 4.5039,-0.5 -0.5,-20.013672 z m 435.29297,49.644534 0.80078,114.34765 c -0.22278,14.15559 -0.45493,30.28229 -0.6875,48.65821 -0.73638,77.33108 -1.71938,222.35794 -1.96484,321.67773 l -0.21875,162.47656 -56.46485,0.0996 c -34.45564,-0.79613 -112.84705,-0.79977 -207.92383,-0.008 l -202.01367,1.23438 0,-323.6543 0,-323.6543 243.74219,-0.49414 z m -473.38281,108.00586 0,24.11718 -104.32032,0 -104.322262,0 0,-11.11914 0.271739,-10.07468 110.814203,-1.56008 c 54.89146,-0.16067 77.41972,-0.34551 77.75,-1.08789 z m 652.23632,0.92578 32.26172,1.02539 0.83985,18.47851 c -0.30526,0.67724 -0.5,1.37386 -0.5,1.95704 0,2.22357 -24.79077,2.7189 -104.32032,2.2246 l -104.32226,-0.49414 0,-11.11914 0,-11.11718 103.83008,-0.2461 c 35.83371,-0.11342 58.90223,-0.33924 72.21093,-0.70898 z m -851.060542,28.13281 99.412112,0 99.41211,0 0,264.85156 0,245.89649 -17.74805,0.0879 c -7.84371,-1.39687 -45.71969,-1.6214 -95.6543,-0.89649 l -85.421872,1.48243 0,-255.71094 z m 675.019532,0 100.14844,0 99.90234,0 0.24609,265.09961 0,244.63477 -33.52929,0.0605 c -16.2497,-0.49917 -43.28503,-0.50746 -78.125,0.13672 l -85.45899,0.15039 -1.46484,-188.1582 c -0.98185,-104.01401 -1.71875,-219.14544 -1.71875,-255.71094 z m -62.07227,512.42578 57.18555,0.39063 -0.0215,15.90039 -7.85547,0.24609 c -4.41831,0.24707 -103.09395,0.24707 -219.19727,0 -116.10332,-0.24706 -217.47858,-0.24609 -225.08789,-0.24609 -14.23677,0 -14.23633,-1.9e-4 -14.23633,-7.41211 l 0,-7.41211 225.33399,-0.24609 c 95.2174,-0.15061 155.10949,-0.57602 183.8789,-1.22071 z m 170.41992,1.16797 91.94922,0.63086 0,15.72656 -98.91992,0 -98.92187,0 0,-8.15234 0,-7.90625 95.23828,-0.24609 c 3.86248,-0.014 7.0737,-0.0356 10.65429,-0.0527 z m -696.51757,0.0781 111.97461,0.55468 0,15.72461 -99.41211,0 -99.412112,0 0,-8.15234 0,-7.90625 z m -32.84766,19.98632 c 40.74662,0 41.72805,1.3e-4 39.27344,4.94141 -1.47277,2.47064 -4.1724,11.11738 -5.89063,19.02344 -2.94554,11.36495 -3.43618,12.84846 -3.68164,6.17773 l -0.24609,-7.90625 -29.45508,0 -29.455078,0 -0.246093,9.14063 c 0,7.90605 -0.734725,6.67149 -4.66211,-8.64649 -2.700077,-9.88256 -5.400334,-19.02444 -6.136718,-20.25976 -0.981847,-1.48239 14.235629,-2.47071 40.499999,-2.47071 z m 98.18555,0 46.63672,0 0,64.23633 0,64.23633 -46.63672,0 c -46.39224,0 -46.63867,-1.4e-4 -46.63867,-5.43555 0,-2.96477 2.94566,-8.15144 6.87304,-11.36328 l 6.62696,-5.68359 -7.85352,3.95312 c -5.40015,2.47064 -8.83778,6.42397 -10.31055,11.85938 l -2.20898,7.90625 -0.24414,-9.38867 c -0.24546,-6.17661 -1.47444,-9.14063 -3.6836,-9.14063 -1.96369,0 -5.89039,-2.96591 -8.83593,-6.67187 -4.66377,-5.92954 -4.90895,-8.64684 -3.68164,-22.97657 4.90923,-49.90696 12.51844,-84.00203 18.16406,-80.54296 1.22731,0.98825 3.43756,5.18761 4.91015,9.63476 2.70008,8.89431 11.28953,55.09621 13.74415,75.35547 l 1.71875,13.09375 26.01953,-1.72852 c 14.48223,-0.98825 26.51039,-1.72949 26.75586,-1.97656 0,0 0.98104,-16.55324 1.96289,-36.8125 l 1.96289,-36.31836 -29.94531,0 -29.70118,0 -0.24609,10.37696 c -0.24546,10.37669 -0.24455,10.12853 -3.43555,-4.69532 -1.71823,-8.40018 -4.41785,-17.29499 -5.89062,-20.25976 -1.47277,-2.71771 -2.70117,-5.43459 -2.70117,-6.17578 0,-0.7412 21.11066,-1.48243 46.63867,-1.48243 z m 51.54687,0 10.55469,0 10.30859,0 0.49219,64.23633 0.73633,64.23633 -11.04688,0 -11.04492,0 0,-64.23633 z m 25.77344,0 37.55469,0 37.31054,0 0,64.23633 0,64.23633 -38.04687,0 -38.04688,0 0.73633,-64.23633 z m 77.32031,0 11.04492,0 11.04688,0 0,43.73047 c 0,24.21229 0.73495,53.11844 1.7168,64.23633 l 1.47265,20.50586 -11.04492,0 -11.04492,0 -1.47266,-48.67187 c -0.98184,-26.6831 -1.71875,-55.58909 -1.71875,-64.23633 z m 27,0 104.32227,0 104.32031,0 0,16.55274 c 0,9.38844 -0.7369,37.55434 -1.71875,63.00195 l -1.47266,46.44727 -18.16406,0 -18.16406,0 0.49219,-61.27149 0.24414,-61.02539 -23.56446,0 c -13.00946,0 -42.95522,0.24806 -66.51953,0.74219 l -43.20117,0.49414 1.71875,25.20117 c 0.98185,14.08266 1.7168,27.17583 1.7168,29.15235 0,1.97651 -0.98105,18.52957 -1.96289,36.31836 l -1.96289,32.85937 -18.16407,0 -17.91992,0 0,-64.23633 z m 211.09766,0 11.04492,0 11.04688,0 0,64.23633 0,64.23633 -7.11914,0 c -15.70955,0 -14.97266,2.96509 -14.97266,-65.71875 z m 27,0 36.82031,0 35.44141,0 1.40234,123.37305 -0.0254,4.85352 -38.29101,0 -38.53907,0 1.47461,-23.96485 c 0.98185,-13.0944 1.7168,-42.0025 1.7168,-64.23828 z m 88.36719,0 9.81836,0 0,64.23633 0,64.23633 -9.81836,0 -9.81836,0 -0.0801,-12.26367 1.74219,-115.0332 c 1.46229,-1.05293 3.82856,-1.17579 8.15625,-1.17579 z m 17.18164,0 46.63867,0 46.63672,0 -2.45508,6.42383 c -3.92739,10.3767 -2.4541,12.84643 1.71875,2.7168 1.96369,-4.94128 4.66332,-9.14063 5.89062,-9.14063 1.22731,0 3.6828,5.92986 5.64649,12.84766 4.66377,15.81211 13.74609,68.93092 13.74609,79.06055 l 0,7.16406 24.54492,-1.72852 24.30079,-1.73046 2.45507,6.17773 c 1.22731,3.4589 5.15534,8.39851 8.5918,11.36328 3.43646,2.71771 6.38086,7.16609 6.38086,10.13086 0,5.18835 -0.98069,5.1875 -40.5,5.1875 -40.2557,0 -40.50195,-1.4e-4 -40.50195,-5.43555 0,-2.96477 2.94566,-8.15241 6.87304,-11.11718 l 6.62696,-5.68164 -7.85352,4.19921 c -6.13654,3.4589 -8.10156,6.17689 -8.10156,11.36524 0,3.95302 -0.98168,6.42283 -2.20899,5.68164 -0.98184,-0.74119 -1.47139,-4.19931 -0.98046,-7.6582 0.98184,-4.44716 -4.1e-4,-6.66995 -3.19141,-7.65821 -10.55485,-3.95302 -13.25586,-8.64785 -13.25586,-24.21289 0,-8.40018 1.71795,-26.18881 3.68164,-39.77734 4.17285,-29.40064 4.17285,-33.84822 0,-17.29492 l -3.18945,12.35351 -0.2461,-10.62304 -0.24609,-10.625 -28.71875,0.74218 -28.96484,0.74024 -0.73633,37.80078 -0.73633,38.04883 26.75586,-1.73047 26.75586,-1.72852 1.7168,6.42383 c 0.73638,3.4589 4.17291,8.15142 7.60937,10.375 3.68192,2.47064 6.13672,6.42391 6.13672,9.88281 l 0,5.92969 -45.41016,0 -45.41015,0 0,-64.23633 z m -671.210941,1.02735 c 3.306866,0.31583 7.085125,11.97723 11.900391,36.03125 3.191,17.04742 6.873622,37.80197 7.855469,46.44922 l 1.71875,15.56445 23.808591,-1.72852 c 22.82793,-1.48238 24.05653,-1.4823 25.5293,3.45899 0.98185,2.96477 4.90918,7.90633 9.08203,11.36523 3.92739,3.4589 7.11719,8.39948 7.11719,11.11719 0,4.94128 -1.22615,5.1875 -40.5,5.1875 -40.255732,0 -40.501955,-1.4e-4 -40.501955,-5.43555 0,-2.96477 2.945662,-8.15241 6.873047,-11.11718 l 6.626953,-5.68164 -7.853516,4.19921 c -5.400154,2.96477 -8.101562,6.42392 -8.101562,9.88282 0,2.96477 -1.225817,6.1766 -2.453125,6.91797 -1.472769,0.98825 -2.455078,-1.7306 -2.455078,-6.67188 0,-6.1766 -1.473006,-8.8936 -5.400391,-10.62305 -10.309385,-4.44715 -11.537392,-11.85925 -7.855469,-46.20117 3.191001,-30.14183 5.892183,-44.47105 11.046875,-58.30664 1.043212,-2.77947 2.116552,-4.26146 3.244141,-4.4043 0.105711,-0.0134 0.211686,-0.0138 0.318359,-0.004 z m 428.203121,9.34961 0,9.14062 0,9.38867 -26.50976,10.12891 c -14.7277,5.68248 -27.49018,10.37695 -28.22656,10.37695 -0.98185,0 -1.71875,-8.64577 -1.71875,-19.26953 l 0,-19.02539 28.22851,-0.49414 z m 8.57618,0.21875 42.52734,0.5 -42.02539,14.00976 z m 52.41406,2.19336 c 2.79506,-0.0203 2.81611,1.75728 1.84961,5 -0.73639,3.21183 -1.47266,17.54137 -1.47266,31.87109 l 0,25.94141 -21.35547,4.19922 c -12.02761,2.22357 -24.05641,4.9424 -27.00195,5.68359 -5.64562,1.48238 -5.64453,1.48174 -5.64453,-25.69531 l 0,-27.17578 25.28125,-10.13086 c 16.56865,-6.67074 24.7501,-9.66731 28.34375,-9.69336 z m -464.390626,14.64257 45.535156,1.23047 -0.61523,21.53711 -5.53711,39.99805 -38.152348,0.61523 0,-3.69336 -3.076171,-22.76757 z m 94.148436,0 43.07227,2.46094 -1.23047,23.99805 -5.53711,35.07422 -36.91992,0 1.23047,-10.46094 -4.3086,-27.68945 z m 624.57227,1.84571 1.23047,21.53711 -3.07618,39.99804 -38.76757,2.46094 -2.46094,-14.76953 4.30664,-48.61133 z m 91.07031,0 1.23047,15.99804 -3.69141,44.92188 -35.07422,1.23047 -3.07812,-27.69141 c 0,0 1.23067,-30.76714 0,-33.22851 z m -409.33594,8.02929 c 2.20916,-0.24706 2.94531,6.4243 2.94531,25.20118 l 0,25.69336 -24.54492,3.95312 c -34.85554,5.92954 -31.91015,7.41249 -31.91015,-16.55273 l 0,-20.75391 25.2832,-8.64648 c 13.74585,-4.94129 26.50833,-8.89454 28.22656,-8.89454 z m 60.37696,44.50196 c 3.52066,0.23162 3.93554,5.46745 3.93554,21.95898 l 0,22.23438 -27.00195,0 -27,0 -0.49219,-12.35352 c -0.24546,-6.9178 -0.49023,-14.82234 -0.49023,-17.78711 -0.24546,-5.18835 1.47239,-5.93073 21.8457,-8.64844 12.27308,-1.72944 23.31974,-3.70509 24.54687,-4.19921 1.9637,-0.80296 3.48264,-1.28229 4.65626,-1.20508 z M 492.75,874.46875 c 0.24546,-0.24706 0.49023,7.41333 0.49023,17.04883 l 0,17.29297 -28.22656,0 -28.22851,0 0,-11.11719 c 0,-9.38844 0.7353,-11.1182 5.64453,-12.35352 2.94554,-0.74119 15.46457,-3.45904 27.49219,-5.92968 12.2729,-2.71771 22.3372,-4.69435 22.82812,-4.94141 z" />
      <path
         inkscape:connector-curvature="0"
         id="path8890"
         d="m 3658.177,676.44206 -200.5504,-4.98121 -7.5207,-181.8152 20.0551,-84.68104 165.454,0 27.5757,174.34333 z"
         style="fill:#d9ce38;fill-rule:evenodd;stroke:none;stroke-width:4.0607233px;stroke-linecap:butt;stroke-linejoin:miter;stroke-opacity:1;fill-opacity:1" />
      <path
         sodipodi:nodetypes="ccccccc"
         style="fill:#d9ce38;fill-opacity:1;fill-rule:evenodd;stroke:none;stroke-width:4.0607233px;stroke-linecap:butt;stroke-linejoin:miter;stroke-opacity:1"
         d="m 3279.6381,671.46082 -200.5504,-4.98121 -7.5207,-181.8152 20.0551,-84.68104 177.9884,7.47186 15.0413,166.87147 z"
         id="path8892"
         inkscape:connector-curvature="0" />
      <path
         inkscape:connector-curvature="0"
         id="path8894"
         d="m 903.1157,673.95144 -200.5504,-4.98121 -7.5207,-181.8152 20.0551,-84.68104 177.9884,7.47186 15.0413,166.87147 z"
         style="fill:#d9ce38;fill-opacity:1;fill-rule:evenodd;stroke:none;stroke-width:4.0607233px;stroke-linecap:butt;stroke-linejoin:miter;stroke-opacity:1"
         sodipodi:nodetypes="ccccccc" />
      <path
         sodipodi:nodetypes="ccccccc"
         style="fill:#8a897d;fill-opacity:1;fill-rule:evenodd;stroke:none;stroke-width:4.0607233px;stroke-linecap:butt;stroke-linejoin:miter;stroke-opacity:1"
         d="m 524.57679,676.44206 -200.5504,-4.98121 -7.5207,-181.8152 20.0551,-84.68104 177.9884,7.47186 15.0413,166.87147 z"
         id="path8896"
         inkscape:connector-curvature="0" />
      <g
         id="g8846">
        <path
           style="fill:#d9ce38;fill-rule:evenodd;stroke:none;stroke-width:4.0607233px;stroke-linecap:butt;stroke-linejoin:miter;stroke-opacity:1;fill-opacity:1"
           d="m 321.13832,2853.2873 4.07654,-269.3311 197.71199,2.025 18.34442,269.3312 z"
           id="path8825"
           inkscape:connector-curvature="0" />
        <path
           inkscape:connector-curvature="0"
           id="path8827"
           d="m 696.17961,2853.2873 4.07654,-269.3311 197.71199,2.025 18.34442,269.3312 z"
           style="fill:#d9ce38;fill-opacity:1;fill-rule:evenodd;stroke:none;stroke-width:4.0607233px;stroke-linecap:butt;stroke-linejoin:miter;stroke-opacity:1" />
        <path
           style="fill:#d9ce38;fill-opacity:1;fill-rule:evenodd;stroke:none;stroke-width:4.0607233px;stroke-linecap:butt;stroke-linejoin:miter;stroke-opacity:1"
           d="m 321.13832,2349.0507 4.07654,-269.3311 197.71199,2.025 18.34442,269.3312 z"
           id="path8829"
           inkscape:connector-curvature="0" />
        <path
           inkscape:connector-curvature="0"
           id="path8831"
           d="m 702.29441,2345.0006 4.07654,-269.3311 197.71199,2.025 18.34442,269.3312 z"
           style="fill:#8a897d;fill-opacity:1;fill-rule:evenodd;stroke:none;stroke-width:4.0607233px;stroke-linecap:butt;stroke-linejoin:miter;stroke-opacity:1" />
        <path
           style="fill:#d9ce38;fill-opacity:1;fill-rule:evenodd;stroke:none;stroke-width:4.0607233px;stroke-linecap:butt;stroke-linejoin:miter;stroke-opacity:1"
           d="m 321.13832,1842.7891 4.07654,-269.3311 197.71199,2.025 18.34442,269.3312 z"
           id="path8833"
           inkscape:connector-curvature="0" />
        <path
           inkscape:connector-curvature="0"
           id="path8835"
           d="m 700.25614,1844.8141 4.07654,-269.3311 197.71199,2.025 18.34442,269.3312 z"
           style="fill:#d9ce38;fill-opacity:1;fill-rule:evenodd;stroke:none;stroke-width:4.0607233px;stroke-linecap:butt;stroke-linejoin:miter;stroke-opacity:1" />
        <path
           inkscape:connector-curvature="0"
           id="path8842"
           d="m 323.17659,1330.4523 4.07654,-269.3311 197.71199,2.025 18.34442,269.3312 z"
           style="fill:#d9ce38;fill-opacity:1;fill-rule:evenodd;stroke:none;stroke-width:4.0607233px;stroke-linecap:butt;stroke-linejoin:miter;stroke-opacity:1" />
        <path
           style="fill:#d9ce38;fill-opacity:1;fill-rule:evenodd;stroke:none;stroke-width:4.0607233px;stroke-linecap:butt;stroke-linejoin:miter;stroke-opacity:1"
           d="m 698.21788,1326.4022 4.07654,-269.3311 197.71199,2.025 18.34442,269.3312 z"
           id="path8844"
           inkscape:connector-curvature="0" />
        <path
           d="M 83.320312 266.44531 L 83.320312 303.50391 L 83.320312 340.56445 L 110.07617 340.56445 C 125.04933 340.56445 137.56767 339.82321 138.05859 338.58789 C 138.79498 337.59963 140.02206 321.04541 141.00391 301.52734 L 142.9668 266.44531 L 113.02148 266.44531 L 83.320312 266.44531 z M 176.5957 266.44531 L 176.5957 292.13867 C 176.5957 306.22133 175.85943 322.77555 175.12305 329.19922 L 173.4043 340.56445 L 202.12305 340.56445 C 222.74182 340.56445 231.08783 339.8222 231.82422 337.35156 C 232.31514 335.86918 233.05268 319.06985 233.78906 300.29297 L 234.76953 266.44531 L 205.56055 266.44531 L 176.5957 266.44531 z M 89.056641 272.07422 L 137.08594 273.07422 L 133.58398 335.11523 L 87.554688 333.61328 L 89.056641 272.07422 z M 181.61523 273.07422 L 227.64453 275.57617 L 226.64258 335.11523 L 181.11523 334.11328 L 181.61523 273.07422 z M 142.9668 389.97656 L 117.43945 390.22266 C 103.44814 390.46972 89.947435 390.96389 87.738281 391.70508 C 83.810896 392.69333 83.320312 396.64634 83.320312 430 L 83.320312 467.30664 L 110.56641 465.82422 C 125.53956 465.08303 138.30463 463.8496 139.04102 463.35547 C 139.53194 462.61428 140.75776 445.81201 141.49414 426.04688 L 142.9668 389.97656 z M 236.24219 389.97656 L 210.71484 390.22266 C 196.72353 390.46972 183.22283 390.96389 181.01367 391.70508 C 177.08629 392.69333 176.5957 396.64634 176.5957 430 L 176.5957 467.30664 L 203.8418 465.82422 C 218.81495 465.08303 231.3333 464.09569 231.82422 463.60156 C 232.31514 463.10743 233.29745 446.55418 234.2793 426.29492 L 236.24219 389.97656 z M 231.14648 397.1543 L 227.64453 460.19336 L 182.11523 461.69336 C 182.11523 461.69336 182.61554 400.65557 182.11523 398.6543 L 231.14648 397.1543 z M 88.556641 398.1543 L 136.08594 398.1543 L 133.58398 458.19141 L 89.556641 461.19336 L 88.556641 398.1543 z M 83.320312 515.97852 L 83.320312 553.03906 L 83.320312 590.09766 L 110.07617 590.09766 C 126.5221 590.09766 137.56698 589.11031 138.54883 587.38086 C 139.53067 586.14554 140.75776 569.34425 141.49414 550.32031 L 142.9668 515.97852 L 113.02148 515.97852 L 83.320312 515.97852 z M 176.5957 515.97852 L 176.5957 553.03906 L 176.5957 590.09766 L 203.35156 590.09766 C 218.32472 590.09766 230.84306 589.35641 231.33398 588.12109 C 232.07037 587.13284 233.29745 570.58057 234.2793 551.0625 L 236.24219 515.97852 L 206.29688 515.97852 L 176.5957 515.97852 z M 182.11523 523.23242 L 231.14648 523.73438 L 224.14258 584.77148 L 183.11523 584.27148 L 182.11523 523.23242 z M 89.556641 523.73438 L 135.58594 524.23438 L 137.08594 549.25 L 134.08398 584.27148 L 89.556641 585.27344 L 89.556641 523.73438 z "
           transform="matrix(4.0739576,0,0,-4.0475316,-29.443746,3948.442)"
           id="path8043" />
        <path
           d="M 83.320312 641.98242 L 83.320312 680.52344 L 83.320312 719.06641 L 111.05664 717.33594 C 126.0298 716.34768 138.79423 715.1123 139.28516 714.86523 C 139.77608 714.37111 140.75776 697.81787 141.49414 678.05273 L 142.9668 641.98242 L 113.26758 641.98242 L 83.320312 641.98242 z M 176.5957 641.98242 L 176.5957 680.52344 L 176.5957 718.81836 L 204.33203 717.08984 C 219.30519 716.10159 232.07094 715.36035 232.31641 715.11328 C 232.31641 715.11328 233.29745 698.56004 234.2793 678.30078 L 236.24219 641.98242 L 206.29688 641.98242 L 176.5957 641.98242 z M 135.58594 649.3125 L 134.58594 709.35156 L 91.558594 712.35352 L 90.056641 650.31445 L 135.58594 649.3125 z M 182.61523 650.31445 L 231.64648 651.81445 L 229.64453 682.33398 L 223.14062 709.85156 L 183.61523 711.85352 L 182.61523 650.31445 z "
           transform="matrix(4.0739576,0,0,-4.0475316,-29.443746,3948.442)"
           id="path8055" />
      </g>
      <path
         inkscape:connector-curvature="0"
         id="path8105"
         d="m 830,170 c -506,-3 -47,-5 1165,-6 1100,0 1804,3 1565,7 -487,7 -1482,7 -2730,-1 z" />
      <g
         id="g8742">
        <path
           style="fill:#d9ce38;fill-rule:evenodd;stroke:none;stroke-width:4.0607233px;stroke-linecap:butt;stroke-linejoin:miter;stroke-opacity:1;fill-opacity:1"
           d="m 1817.2269,3381.8244 10.1914,-285.5315 330.1994,10.1252 4.0765,275.4063 z"
           id="path8740"
           inkscape:connector-curvature="0" />
        <path
           d="M 451.51367 137.9707 L 451.51367 175.03125 L 451.51367 212.08984 L 495.45117 212.08984 L 539.14258 212.08984 L 540.61523 195.28906 C 541.59708 186.14769 542.33398 169.59542 542.33398 158.23047 L 542.33398 137.9707 L 496.92383 137.9707 L 451.51367 137.9707 z M 457.28906 143.49219 L 533.33789 144.99414 L 530.83594 174.51367 L 530.83594 206.0332 L 458.79102 204.03125 L 457.28906 143.49219 z "
           transform="matrix(4.0739576,0,0,-4.0475316,-29.443746,3948.442)"
           id="path8077" />
        <path
           style="fill:#d9ce38;fill-rule:evenodd;stroke:none;stroke-width:4.0607233px;stroke-linecap:butt;stroke-linejoin:miter;stroke-opacity:1;fill-opacity:1"
           d="m 2520.4294,3373.7243 -4.0766,-228.8303 224.2095,-8.1002 -6.1148,68.8516 -12.2296,162.0037 z"
           id="path8734"
           inkscape:connector-curvature="0" />
        <path
           d="m 620.88086,137.9707 0,29.64844 0,29.64648 -13.5,0 -13.5,0 0,16.06055 c 0,6.78321 0.54122,12.3334 1.42187,14.75 l 0.49219,9.48828 c -1.49453,0.81044 -1.91406,2.40036 -1.91406,5.40821 0,8.40018 7.11858,9.38961 65.29297,8.15429 l 48.8457,-0.74218 0.73633,-21 c 0.98185,-30.88302 0.49136,-32.11914 -14.23633,-32.11915 l -12.27344,0 0,-25.44726 c 2.87917,-22.17412 -0.76267,-32.80395 -0.76267,-32.80395 0,0 -16.17416,-1.04371 -33.35647,-1.04371 z m 9.01758,7.52344 43.52734,3.00195 1.50195,46.0293 -46.53125,0.5 z m -28.62305,59.92969 c 0.78241,0.0116 1.81012,0.30396 3.16016,0.73633 2.94554,0.74119 5.64579,1.97754 6.13672,2.22461 0.24546,0.24706 -5.8e-4,6.91718 -0.98243,14.57617 -1.47277,13.0944 -1.96433,13.83594 -8.59179,13.83594 -0.44169,0 -0.80657,0.0188 -1.19727,0.0312 l -1.2539,-14.49804 c 0.15158,-1.68325 0.24218,-3.54931 0.24218,-5.54492 0,-8.89431 0.1391,-11.39608 2.48633,-11.36133 z m 17.61523,2.10937 9.50586,1.00196 1.50196,30.01757 -15.00977,1.00196 z m 57.03711,0 11.00586,0.5 -2.5,30.51953 -9.00586,0 0,-27.51757 z m -39.02539,1.00196 7.50586,0.5 3.00196,28.01757 -10.00782,1 z m 28.51758,0 0.50196,27.51562 -11.00782,-0.5 c 0,0 1,-24.01402 1,-26.51562 z m 28.01953,0 7.50391,1 0.5,27.51757 -7.50391,-1.50195 z"
           transform="matrix(4.0739576,0,0,-4.0475316,-29.443746,3948.442)"
           id="path8079"
           inkscape:connector-curvature="0"
           sodipodi:nodetypes="cccccsccscccscccsccccccccccsccssccccccccccccccccccccccccccc" />
        <path
           inkscape:connector-curvature="0"
           id="path8736"
           d="m 1248.5502,3404.1 -4.0766,-228.8303 224.2095,-8.1002 -6.1148,68.8516 -12.2296,162.0037 z"
           style="fill:#d9ce38;fill-opacity:1;fill-rule:evenodd;stroke:none;stroke-width:4.0607233px;stroke-linecap:butt;stroke-linejoin:miter;stroke-opacity:1" />
        <path
           sodipodi:nodetypes="cccccsccscccscccsccccccccccsccssccccccccccccccccccccccccccc"
           inkscape:connector-curvature="0"
           id="path8738"
           d="m 1228.1194,3420.377 0,-120.003 0,-119.9951 -54.9984,0 -54.9985,0 0,-65.0056 c 0,-27.4552 2.2049,-49.9198 5.7927,-59.7011 l 2.0051,-38.4041 c -6.0886,-3.2803 -7.7978,-9.7155 -7.7978,-21.8899 0,-34 29.0008,-38.0047 266.0008,-33.0047 l 198.9953,3.004 2.9998,84.9981 c 4,125 2.0018,130.0033 -57.9982,130.0033 l -50.0015,0 0,102.9986 c 11.7296,89.7505 -3.1071,132.775 -3.1071,132.775 0,0 -65.8928,4.2245 -135.8928,4.2245 z m 36.7372,-30.4514 177.3286,-12.1505 6.1188,-186.305 -189.5663,-2.0238 z m -116.6091,-242.5673 c 3.1875,-0.047 7.3744,-1.2303 12.8744,-2.9803 12,-3 23.0007,-8.0042 25.0007,-9.0042 1,-1 0,-27.9975 -4.0024,-58.9975 -6,-53 -8.0025,-56.0014 -35.0025,-56.0014 -1.7995,0 -3.286,-0.076 -4.8777,-0.1263 l -5.1083,58.6813 c 0.6175,6.813 0.9866,14.3659 0.9866,22.4432 0,36 0.5667,46.126 10.1292,45.9854 z m 71.7637,-8.5377 38.7265,-4.0555 6.1189,-121.4971 -61.1491,-4.0554 z m 232.3668,0 44.8374,-2.0238 -10.1849,-123.5288 -36.6895,0 0,111.3783 z m -158.9878,-4.0555 30.5786,-2.0238 12.2298,-113.402 -40.7714,-4.0475 z m 116.1794,0 2.045,-111.3703 -44.8454,2.0237 c 0,0 4.074,97.1975 4.074,107.3228 z m 114.1504,0 30.5706,-4.0475 2.037,-111.3783 -30.5706,6.0792 z" />
      </g>
      <g
         transform="translate(-8.1530715,-530.56218)"
         id="g8750">
        <path
           inkscape:connector-curvature="0"
           id="path8752"
           d="m 1817.2269,3381.8244 10.1914,-285.5315 330.1994,10.1252 4.0765,275.4063 z"
           style="fill:#8a897d;fill-opacity:1;fill-rule:evenodd;stroke:none;stroke-width:4.0607233px;stroke-linecap:butt;stroke-linejoin:miter;stroke-opacity:1" />
        <path
           inkscape:connector-curvature="0"
           id="path8754"
           transform="matrix(4.0739576,0,0,-4.0475316,-29.443746,3948.442)"
           d="m 451.51367,137.9707 0,37.06055 0,37.05859 43.9375,0 43.69141,0 1.47265,-16.80078 c 0.98185,-9.14137 1.71875,-25.69364 1.71875,-37.05859 l 0,-20.25977 -45.41015,0 -45.41016,0 z m 5.77539,5.52149 76.04883,1.50195 -2.50195,29.51953 0,31.51953 -72.04492,-2.00195 -1.50196,-60.53906 z" />
        <path
           inkscape:connector-curvature="0"
           id="path8756"
           d="m 2520.4294,3373.7243 -4.0766,-228.8303 224.2095,-8.1002 -6.1148,68.8516 -12.2296,162.0037 z"
           style="fill:#d9ce38;fill-opacity:1;fill-rule:evenodd;stroke:none;stroke-width:4.0607233px;stroke-linecap:butt;stroke-linejoin:miter;stroke-opacity:1" />
        <path
           sodipodi:nodetypes="cccccsccscccscccsccccccccccsccssccccccccccccccccccccccccccc"
           inkscape:connector-curvature="0"
           id="path8758"
           transform="matrix(4.0739576,0,0,-4.0475316,-29.443746,3948.442)"
           d="m 620.88086,137.9707 0,29.64844 0,29.64648 -13.5,0 -13.5,0 0,16.06055 c 0,6.78321 0.54122,12.3334 1.42187,14.75 l 0.49219,9.48828 c -1.49453,0.81044 -1.91406,2.40036 -1.91406,5.40821 0,8.40018 7.11858,9.38961 65.29297,8.15429 l 48.8457,-0.74218 0.73633,-21 c 0.98185,-30.88302 0.49136,-32.11914 -14.23633,-32.11915 l -12.27344,0 0,-25.44726 c 2.87917,-22.17412 -0.76267,-32.80395 -0.76267,-32.80395 0,0 -16.17416,-1.04371 -33.35647,-1.04371 z m 9.01758,7.52344 43.52734,3.00195 1.50195,46.0293 -46.53125,0.5 z m -28.62305,59.92969 c 0.78241,0.0116 1.81012,0.30396 3.16016,0.73633 2.94554,0.74119 5.64579,1.97754 6.13672,2.22461 0.24546,0.24706 -5.8e-4,6.91718 -0.98243,14.57617 -1.47277,13.0944 -1.96433,13.83594 -8.59179,13.83594 -0.44169,0 -0.80657,0.0188 -1.19727,0.0312 l -1.2539,-14.49804 c 0.15158,-1.68325 0.24218,-3.54931 0.24218,-5.54492 0,-8.89431 0.1391,-11.39608 2.48633,-11.36133 z m 17.61523,2.10937 9.50586,1.00196 1.50196,30.01757 -15.00977,1.00196 z m 57.03711,0 11.00586,0.5 -2.5,30.51953 -9.00586,0 0,-27.51757 z m -39.02539,1.00196 7.50586,0.5 3.00196,28.01757 -10.00782,1 z m 28.51758,0 0.50196,27.51562 -11.00782,-0.5 c 0,0 1,-24.01402 1,-26.51562 z m 28.01953,0 7.50391,1 0.5,27.51757 -7.50391,-1.50195 z" />
        <path
           style="fill:#d9ce38;fill-opacity:1;fill-rule:evenodd;stroke:none;stroke-width:4.0607233px;stroke-linecap:butt;stroke-linejoin:miter;stroke-opacity:1"
           d="m 1248.5502,3404.1 -4.0766,-228.8303 224.2095,-8.1002 -6.1148,68.8516 -12.2296,162.0037 z"
           id="path8760"
           inkscape:connector-curvature="0" />
        <path
           d="m 1228.1194,3420.377 0,-120.003 0,-119.9951 -54.9984,0 -54.9985,0 0,-65.0056 c 0,-27.4552 2.2049,-49.9198 5.7927,-59.7011 l 2.0051,-38.4041 c -6.0886,-3.2803 -7.7978,-9.7155 -7.7978,-21.8899 0,-34 29.0008,-38.0047 266.0008,-33.0047 l 198.9953,3.004 2.9998,84.9981 c 4,125 2.0018,130.0033 -57.9982,130.0033 l -50.0015,0 0,102.9986 c 11.7296,89.7505 -3.1071,132.775 -3.1071,132.775 0,0 -65.8928,4.2245 -135.8928,4.2245 z m 36.7372,-30.4514 177.3286,-12.1505 6.1188,-186.305 -189.5663,-2.0238 z m -116.6091,-242.5673 c 3.1875,-0.047 7.3744,-1.2303 12.8744,-2.9803 12,-3 23.0007,-8.0042 25.0007,-9.0042 1,-1 0,-27.9975 -4.0024,-58.9975 -6,-53 -8.0025,-56.0014 -35.0025,-56.0014 -1.7995,0 -3.286,-0.076 -4.8777,-0.1263 l -5.1083,58.6813 c 0.6175,6.813 0.9866,14.3659 0.9866,22.4432 0,36 0.5667,46.126 10.1292,45.9854 z m 71.7637,-8.5377 38.7265,-4.0555 6.1189,-121.4971 -61.1491,-4.0554 z m 232.3668,0 44.8374,-2.0238 -10.1849,-123.5288 -36.6895,0 0,111.3783 z m -158.9878,-4.0555 30.5786,-2.0238 12.2298,-113.402 -40.7714,-4.0475 z m 116.1794,0 2.045,-111.3703 -44.8454,2.0237 c 0,0 4.074,97.1975 4.074,107.3228 z m 114.1504,0 30.5706,-4.0475 2.037,-111.3783 -30.5706,6.0792 z"
           id="path8762"
           inkscape:connector-curvature="0"
           sodipodi:nodetypes="cccccsccscccscccsccccccccccsccssccccccccccccccccccccccccccc" />
      </g>
      <g
         transform="translate(6.1148036,-1059.0993)"
         id="g8764">
        <path
           inkscape:connector-curvature="0"
           id="path8766"
           d="m 1817.2269,3381.8244 10.1914,-285.5315 330.1994,10.1252 4.0765,275.4063 z"
           style="fill:#d9ce38;fill-opacity:1;fill-rule:evenodd;stroke:none;stroke-width:4.0607233px;stroke-linecap:butt;stroke-linejoin:miter;stroke-opacity:1" />
        <path
           inkscape:connector-curvature="0"
           id="path8768"
           transform="matrix(4.0739576,0,0,-4.0475316,-29.443746,3948.442)"
           d="m 451.51367,137.9707 0,37.06055 0,37.05859 43.9375,0 43.69141,0 1.47265,-16.80078 c 0.98185,-9.14137 1.71875,-25.69364 1.71875,-37.05859 l 0,-20.25977 -45.41015,0 -45.41016,0 z m 5.77539,5.52149 76.04883,1.50195 -2.50195,29.51953 0,31.51953 -72.04492,-2.00195 -1.50196,-60.53906 z" />
        <path
           inkscape:connector-curvature="0"
           id="path8770"
           d="m 2520.4294,3373.7243 -4.0766,-228.8303 224.2095,-8.1002 -6.1148,68.8516 -12.2296,162.0037 z"
           style="fill:#d9ce38;fill-opacity:1;fill-rule:evenodd;stroke:none;stroke-width:4.0607233px;stroke-linecap:butt;stroke-linejoin:miter;stroke-opacity:1" />
        <path
           sodipodi:nodetypes="cccccsccscccscccsccccccccccsccssccccccccccccccccccccccccccc"
           inkscape:connector-curvature="0"
           id="path8772"
           transform="matrix(4.0739576,0,0,-4.0475316,-29.443746,3948.442)"
           d="m 620.88086,137.9707 0,29.64844 0,29.64648 -13.5,0 -13.5,0 0,16.06055 c 0,6.78321 0.54122,12.3334 1.42187,14.75 l 0.49219,9.48828 c -1.49453,0.81044 -1.91406,2.40036 -1.91406,5.40821 0,8.40018 7.11858,9.38961 65.29297,8.15429 l 48.8457,-0.74218 0.73633,-21 c 0.98185,-30.88302 0.49136,-32.11914 -14.23633,-32.11915 l -12.27344,0 0,-25.44726 c 2.87917,-22.17412 -0.76267,-32.80395 -0.76267,-32.80395 0,0 -16.17416,-1.04371 -33.35647,-1.04371 z m 9.01758,7.52344 43.52734,3.00195 1.50195,46.0293 -46.53125,0.5 z m -28.62305,59.92969 c 0.78241,0.0116 1.81012,0.30396 3.16016,0.73633 2.94554,0.74119 5.64579,1.97754 6.13672,2.22461 0.24546,0.24706 -5.8e-4,6.91718 -0.98243,14.57617 -1.47277,13.0944 -1.96433,13.83594 -8.59179,13.83594 -0.44169,0 -0.80657,0.0188 -1.19727,0.0312 l -1.2539,-14.49804 c 0.15158,-1.68325 0.24218,-3.54931 0.24218,-5.54492 0,-8.89431 0.1391,-11.39608 2.48633,-11.36133 z m 17.61523,2.10937 9.50586,1.00196 1.50196,30.01757 -15.00977,1.00196 z m 57.03711,0 11.00586,0.5 -2.5,30.51953 -9.00586,0 0,-27.51757 z m -39.02539,1.00196 7.50586,0.5 3.00196,28.01757 -10.00782,1 z m 28.51758,0 0.50196,27.51562 -11.00782,-0.5 c 0,0 1,-24.01402 1,-26.51562 z m 28.01953,0 7.50391,1 0.5,27.51757 -7.50391,-1.50195 z" />
        <path
           style="fill:#d9ce38;fill-opacity:1;fill-rule:evenodd;stroke:none;stroke-width:4.0607233px;stroke-linecap:butt;stroke-linejoin:miter;stroke-opacity:1"
           d="m 1248.5502,3404.1 -4.0766,-228.8303 224.2095,-8.1002 -6.1148,68.8516 -12.2296,162.0037 z"
           id="path8774"
           inkscape:connector-curvature="0" />
        <path
           d="m 1228.1194,3420.377 0,-120.003 0,-119.9951 -54.9984,0 -54.9985,0 0,-65.0056 c 0,-27.4552 2.2049,-49.9198 5.7927,-59.7011 l 2.0051,-38.4041 c -6.0886,-3.2803 -7.7978,-9.7155 -7.7978,-21.8899 0,-34 29.0008,-38.0047 266.0008,-33.0047 l 198.9953,3.004 2.9998,84.9981 c 4,125 2.0018,130.0033 -57.9982,130.0033 l -50.0015,0 0,102.9986 c 11.7296,89.7505 -3.1071,132.775 -3.1071,132.775 0,0 -65.8928,4.2245 -135.8928,4.2245 z m 36.7372,-30.4514 177.3286,-12.1505 6.1188,-186.305 -189.5663,-2.0238 z m -116.6091,-242.5673 c 3.1875,-0.047 7.3744,-1.2303 12.8744,-2.9803 12,-3 23.0007,-8.0042 25.0007,-9.0042 1,-1 0,-27.9975 -4.0024,-58.9975 -6,-53 -8.0025,-56.0014 -35.0025,-56.0014 -1.7995,0 -3.286,-0.076 -4.8777,-0.1263 l -5.1083,58.6813 c 0.6175,6.813 0.9866,14.3659 0.9866,22.4432 0,36 0.5667,46.126 10.1292,45.9854 z m 71.7637,-8.5377 38.7265,-4.0555 6.1189,-121.4971 -61.1491,-4.0554 z m 232.3668,0 44.8374,-2.0238 -10.1849,-123.5288 -36.6895,0 0,111.3783 z m -158.9878,-4.0555 30.5786,-2.0238 12.2298,-113.402 -40.7714,-4.0475 z m 116.1794,0 2.045,-111.3703 -44.8454,2.0237 c 0,0 4.074,97.1975 4.074,107.3228 z m 114.1504,0 30.5706,-4.0475 2.037,-111.3783 -30.5706,6.0792 z"
           id="path8776"
           inkscape:connector-curvature="0"
           sodipodi:nodetypes="cccccsccscccscccsccccccccccsccssccccccccccccccccccccccccccc" />
      </g>
      <g
         id="g8778"
         transform="translate(-2.0382678,-1559.2858)">
        <path
           style="fill:#d9ce38;fill-opacity:1;fill-rule:evenodd;stroke:none;stroke-width:4.0607233px;stroke-linecap:butt;stroke-linejoin:miter;stroke-opacity:1"
           d="m 1817.2269,3381.8244 10.1914,-285.5315 330.1994,10.1252 4.0765,275.4063 z"
           id="path8780"
           inkscape:connector-curvature="0" />
        <path
           d="m 451.51367,137.9707 0,37.06055 0,37.05859 43.9375,0 43.69141,0 1.47265,-16.80078 c 0.98185,-9.14137 1.71875,-25.69364 1.71875,-37.05859 l 0,-20.25977 -45.41015,0 -45.41016,0 z m 5.77539,5.52149 76.04883,1.50195 -2.50195,29.51953 0,31.51953 -72.04492,-2.00195 -1.50196,-60.53906 z"
           transform="matrix(4.0739576,0,0,-4.0475316,-29.443746,3948.442)"
           id="path8782"
           inkscape:connector-curvature="0" />
        <path
           style="fill:#8a897d;fill-opacity:1;fill-rule:evenodd;stroke:none;stroke-width:4.0607233px;stroke-linecap:butt;stroke-linejoin:miter;stroke-opacity:1"
           d="m 2520.4294,3373.7243 -4.0766,-228.8303 224.2095,-8.1002 -6.1148,68.8516 -12.2296,162.0037 z"
           id="path8784"
           inkscape:connector-curvature="0" />
        <path
           d="m 620.88086,137.9707 0,29.64844 0,29.64648 -13.5,0 -13.5,0 0,16.06055 c 0,6.78321 0.54122,12.3334 1.42187,14.75 l 0.49219,9.48828 c -1.49453,0.81044 -1.91406,2.40036 -1.91406,5.40821 0,8.40018 7.11858,9.38961 65.29297,8.15429 l 48.8457,-0.74218 0.73633,-21 c 0.98185,-30.88302 0.49136,-32.11914 -14.23633,-32.11915 l -12.27344,0 0,-25.44726 c 2.87917,-22.17412 -0.76267,-32.80395 -0.76267,-32.80395 0,0 -16.17416,-1.04371 -33.35647,-1.04371 z m 9.01758,7.52344 43.52734,3.00195 1.50195,46.0293 -46.53125,0.5 z m -28.62305,59.92969 c 0.78241,0.0116 1.81012,0.30396 3.16016,0.73633 2.94554,0.74119 5.64579,1.97754 6.13672,2.22461 0.24546,0.24706 -5.8e-4,6.91718 -0.98243,14.57617 -1.47277,13.0944 -1.96433,13.83594 -8.59179,13.83594 -0.44169,0 -0.80657,0.0188 -1.19727,0.0312 l -1.2539,-14.49804 c 0.15158,-1.68325 0.24218,-3.54931 0.24218,-5.54492 0,-8.89431 0.1391,-11.39608 2.48633,-11.36133 z m 17.61523,2.10937 9.50586,1.00196 1.50196,30.01757 -15.00977,1.00196 z m 57.03711,0 11.00586,0.5 -2.5,30.51953 -9.00586,0 0,-27.51757 z m -39.02539,1.00196 7.50586,0.5 3.00196,28.01757 -10.00782,1 z m 28.51758,0 0.50196,27.51562 -11.00782,-0.5 c 0,0 1,-24.01402 1,-26.51562 z m 28.01953,0 7.50391,1 0.5,27.51757 -7.50391,-1.50195 z"
           transform="matrix(4.0739576,0,0,-4.0475316,-29.443746,3948.442)"
           id="path8786"
           inkscape:connector-curvature="0"
           sodipodi:nodetypes="cccccsccscccscccsccccccccccsccssccccccccccccccccccccccccccc" />
        <path
           inkscape:connector-curvature="0"
           id="path8788"
           d="m 1248.5502,3404.1 -4.0766,-228.8303 224.2095,-8.1002 -6.1148,68.8516 -12.2296,162.0037 z"
           style="fill:#d9ce38;fill-opacity:1;fill-rule:evenodd;stroke:none;stroke-width:4.0607233px;stroke-linecap:butt;stroke-linejoin:miter;stroke-opacity:1" />
        <path
           sodipodi:nodetypes="cccccsccscccscccsccccccccccsccssccccccccccccccccccccccccccc"
           inkscape:connector-curvature="0"
           id="path8790"
           d="m 1228.1194,3420.377 0,-120.003 0,-119.9951 -54.9984,0 -54.9985,0 0,-65.0056 c 0,-27.4552 2.2049,-49.9198 5.7927,-59.7011 l 2.0051,-38.4041 c -6.0886,-3.2803 -7.7978,-9.7155 -7.7978,-21.8899 0,-34 29.0008,-38.0047 266.0008,-33.0047 l 198.9953,3.004 2.9998,84.9981 c 4,125 2.0018,130.0033 -57.9982,130.0033 l -50.0015,0 0,102.9986 c 11.7296,89.7505 -3.1071,132.775 -3.1071,132.775 0,0 -65.8928,4.2245 -135.8928,4.2245 z m 36.7372,-30.4514 177.3286,-12.1505 6.1188,-186.305 -189.5663,-2.0238 z m -116.6091,-242.5673 c 3.1875,-0.047 7.3744,-1.2303 12.8744,-2.9803 12,-3 23.0007,-8.0042 25.0007,-9.0042 1,-1 0,-27.9975 -4.0024,-58.9975 -6,-53 -8.0025,-56.0014 -35.0025,-56.0014 -1.7995,0 -3.286,-0.076 -4.8777,-0.1263 l -5.1083,58.6813 c 0.6175,6.813 0.9866,14.3659 0.9866,22.4432 0,36 0.5667,46.126 10.1292,45.9854 z m 71.7637,-8.5377 38.7265,-4.0555 6.1189,-121.4971 -61.1491,-4.0554 z m 232.3668,0 44.8374,-2.0238 -10.1849,-123.5288 -36.6895,0 0,111.3783 z m -158.9878,-4.0555 30.5786,-2.0238 12.2298,-113.402 -40.7714,-4.0475 z m 116.1794,0 2.045,-111.3703 -44.8454,2.0237 c 0,0 4.074,97.1975 4.074,107.3228 z m 114.1504,0 30.5706,-4.0475 2.037,-111.3783 -30.5706,6.0792 z" />
      </g>
      <g
         transform="translate(6.1148037,-2043.2719)"
         id="g8792">
        <path
           inkscape:connector-curvature="0"
           id="path8794"
           d="m 1817.2269,3381.8244 10.1914,-285.5315 330.1994,10.1252 4.0765,275.4063 z"
           style="fill:#8a897d;fill-opacity:1;fill-rule:evenodd;stroke:none;stroke-width:4.0607233px;stroke-linecap:butt;stroke-linejoin:miter;stroke-opacity:1" />
        <path
           inkscape:connector-curvature="0"
           id="path8796"
           transform="matrix(4.0739576,0,0,-4.0475316,-29.443746,3948.442)"
           d="m 451.51367,137.9707 0,37.06055 0,37.05859 43.9375,0 43.69141,0 1.47265,-16.80078 c 0.98185,-9.14137 1.71875,-25.69364 1.71875,-37.05859 l 0,-20.25977 -45.41015,0 -45.41016,0 z m 5.77539,5.52149 76.04883,1.50195 -2.50195,29.51953 0,31.51953 -72.04492,-2.00195 -1.50196,-60.53906 z" />
        <path
           inkscape:connector-curvature="0"
           id="path8798"
           d="m 2520.4294,3373.7243 -4.0766,-228.8303 224.2095,-8.1002 -6.1148,68.8516 -12.2296,162.0037 z"
           style="fill:#d9ce38;fill-opacity:1;fill-rule:evenodd;stroke:none;stroke-width:4.0607233px;stroke-linecap:butt;stroke-linejoin:miter;stroke-opacity:1" />
        <path
           sodipodi:nodetypes="cccccsccscccscccsccccccccccsccssccccccccccccccccccccccccccc"
           inkscape:connector-curvature="0"
           id="path8800"
           transform="matrix(4.0739576,0,0,-4.0475316,-29.443746,3948.442)"
           d="m 620.88086,137.9707 0,29.64844 0,29.64648 -13.5,0 -13.5,0 0,16.06055 c 0,6.78321 0.54122,12.3334 1.42187,14.75 l 0.49219,9.48828 c -1.49453,0.81044 -1.91406,2.40036 -1.91406,5.40821 0,8.40018 7.11858,9.38961 65.29297,8.15429 l 48.8457,-0.74218 0.73633,-21 c 0.98185,-30.88302 0.49136,-32.11914 -14.23633,-32.11915 l -12.27344,0 0,-25.44726 c 2.87917,-22.17412 -0.76267,-32.80395 -0.76267,-32.80395 0,0 -16.17416,-1.04371 -33.35647,-1.04371 z m 9.01758,7.52344 43.52734,3.00195 1.50195,46.0293 -46.53125,0.5 z m -28.62305,59.92969 c 0.78241,0.0116 1.81012,0.30396 3.16016,0.73633 2.94554,0.74119 5.64579,1.97754 6.13672,2.22461 0.24546,0.24706 -5.8e-4,6.91718 -0.98243,14.57617 -1.47277,13.0944 -1.96433,13.83594 -8.59179,13.83594 -0.44169,0 -0.80657,0.0188 -1.19727,0.0312 l -1.2539,-14.49804 c 0.15158,-1.68325 0.24218,-3.54931 0.24218,-5.54492 0,-8.89431 0.1391,-11.39608 2.48633,-11.36133 z m 17.61523,2.10937 9.50586,1.00196 1.50196,30.01757 -15.00977,1.00196 z m 57.03711,0 11.00586,0.5 -2.5,30.51953 -9.00586,0 0,-27.51757 z m -39.02539,1.00196 7.50586,0.5 3.00196,28.01757 -10.00782,1 z m 28.51758,0 0.50196,27.51562 -11.00782,-0.5 c 0,0 1,-24.01402 1,-26.51562 z m 28.01953,0 7.50391,1 0.5,27.51757 -7.50391,-1.50195 z" />
        <path
           style="fill:#8a897d;fill-opacity:1;fill-rule:evenodd;stroke:none;stroke-width:4.0607233px;stroke-linecap:butt;stroke-linejoin:miter;stroke-opacity:1"
           d="m 1248.5502,3404.1 -4.0766,-228.8303 224.2095,-8.1002 -6.1148,68.8516 -12.2296,162.0037 z"
           id="path8802"
           inkscape:connector-curvature="0" />
        <path
           d="m 1228.1194,3420.377 0,-120.003 0,-119.9951 -54.9984,0 -54.9985,0 0,-65.0056 c 0,-27.4552 2.2049,-49.9198 5.7927,-59.7011 l 2.0051,-38.4041 c -6.0886,-3.2803 -7.7978,-9.7155 -7.7978,-21.8899 0,-34 29.0008,-38.0047 266.0008,-33.0047 l 198.9953,3.004 2.9998,84.9981 c 4,125 2.0018,130.0033 -57.9982,130.0033 l -50.0015,0 0,102.9986 c 11.7296,89.7505 -3.1071,132.775 -3.1071,132.775 0,0 -65.8928,4.2245 -135.8928,4.2245 z m 36.7372,-30.4514 177.3286,-12.1505 6.1188,-186.305 -189.5663,-2.0238 z m -116.6091,-242.5673 c 3.1875,-0.047 7.3744,-1.2303 12.8744,-2.9803 12,-3 23.0007,-8.0042 25.0007,-9.0042 1,-1 0,-27.9975 -4.0024,-58.9975 -6,-53 -8.0025,-56.0014 -35.0025,-56.0014 -1.7995,0 -3.286,-0.076 -4.8777,-0.1263 l -5.1083,58.6813 c 0.6175,6.813 0.9866,14.3659 0.9866,22.4432 0,36 0.5667,46.126 10.1292,45.9854 z m 71.7637,-8.5377 38.7265,-4.0555 6.1189,-121.4971 -61.1491,-4.0554 z m 232.3668,0 44.8374,-2.0238 -10.1849,-123.5288 -36.6895,0 0,111.3783 z m -158.9878,-4.0555 30.5786,-2.0238 12.2298,-113.402 -40.7714,-4.0475 z m 116.1794,0 2.045,-111.3703 -44.8454,2.0237 c 0,0 4.074,97.1975 4.074,107.3228 z m 114.1504,0 30.5706,-4.0475 2.037,-111.3783 -30.5706,6.0792 z"
           id="path8804"
           inkscape:connector-curvature="0"
           sodipodi:nodetypes="cccccsccscccscccsccccccccccsccssccccccccccccccccccccccccccc" />
      </g>
      <g
         transform="matrix(-1,0,0,1,3986.1662,-26.459959)"
         id="g8858">
        <path
           inkscape:connector-curvature="0"
           id="path8860"
           d="m 321.13832,2853.2873 4.07654,-269.3311 197.71199,2.025 18.34442,269.3312 z"
           style="fill:#d9ce38;fill-opacity:1;fill-rule:evenodd;stroke:none;stroke-width:4.0607233px;stroke-linecap:butt;stroke-linejoin:miter;stroke-opacity:1" />
        <path
           style="fill:#8a897d;fill-opacity:1;fill-rule:evenodd;stroke:none;stroke-width:4.0607233px;stroke-linecap:butt;stroke-linejoin:miter;stroke-opacity:1"
           d="m 696.17961,2853.2873 4.07654,-269.3311 197.71199,2.025 18.34442,269.3312 z"
           id="path8862"
           inkscape:connector-curvature="0" />
        <path
           inkscape:connector-curvature="0"
           id="path8864"
           d="m 321.13832,2349.0507 4.07654,-269.3311 197.71199,2.025 18.34442,269.3312 z"
           style="fill:#d9ce38;fill-opacity:1;fill-rule:evenodd;stroke:none;stroke-width:4.0607233px;stroke-linecap:butt;stroke-linejoin:miter;stroke-opacity:1" />
        <path
           style="fill:#d9ce38;fill-opacity:1;fill-rule:evenodd;stroke:none;stroke-width:4.0607233px;stroke-linecap:butt;stroke-linejoin:miter;stroke-opacity:1"
           d="m 702.29441,2345.0006 4.07654,-269.3311 197.71199,2.025 18.34442,269.3312 z"
           id="path8866"
           inkscape:connector-curvature="0" />
        <path
           inkscape:connector-curvature="0"
           id="path8868"
           d="m 321.13832,1842.7891 4.07654,-269.3311 197.71199,2.025 18.34442,269.3312 z"
           style="fill:#8a897d;fill-opacity:1;fill-rule:evenodd;stroke:none;stroke-width:4.0607233px;stroke-linecap:butt;stroke-linejoin:miter;stroke-opacity:1" />
        <path
           style="fill:#d9ce38;fill-opacity:1;fill-rule:evenodd;stroke:none;stroke-width:4.0607233px;stroke-linecap:butt;stroke-linejoin:miter;stroke-opacity:1"
           d="m 700.25614,1844.8141 4.07654,-269.3311 197.71199,2.025 18.34442,269.3312 z"
           id="path8870"
           inkscape:connector-curvature="0" />
        <path
           style="fill:#d9ce38;fill-opacity:1;fill-rule:evenodd;stroke:none;stroke-width:4.0607233px;stroke-linecap:butt;stroke-linejoin:miter;stroke-opacity:1"
           d="m 323.17659,1330.4523 4.07654,-269.3311 197.71199,2.025 18.34442,269.3312 z"
           id="path8872"
           inkscape:connector-curvature="0" />
        <path
           inkscape:connector-curvature="0"
           id="path8874"
           d="m 698.21788,1326.4022 4.07654,-269.3311 197.71199,2.025 18.34442,269.3312 z"
           style="fill:#d9ce38;fill-opacity:1;fill-rule:evenodd;stroke:none;stroke-width:4.0607233px;stroke-linecap:butt;stroke-linejoin:miter;stroke-opacity:1" />
        <path
           inkscape:connector-curvature="0"
           id="path8876"
           transform="matrix(4.0739576,0,0,-4.0475316,-29.443746,3948.442)"
           d="m 83.320312,266.44531 0,37.0586 0,37.06054 26.755858,0 c 14.97316,0 27.4915,-0.74124 27.98242,-1.97656 0.73639,-0.98826 1.96347,-17.54248 2.94532,-37.06055 l 1.96289,-35.08203 -29.94532,0 -29.701168,0 z m 93.275388,0 0,25.69336 c 0,14.08266 -0.73627,30.63688 -1.47265,37.06055 l -1.71875,11.36523 28.71875,0 c 20.61877,0 28.96478,-0.74225 29.70117,-3.21289 0.49092,-1.48238 1.22846,-18.28171 1.96484,-37.05859 l 0.98047,-33.84766 -29.20898,0 -28.96485,0 z m -87.539059,5.62891 48.029299,1 -3.50196,62.04101 -46.029292,-1.50195 1.501953,-61.53906 z m 92.558589,1 46.0293,2.50195 -1.00195,59.53906 -45.52735,-1.00195 0.5,-61.03906 z m -38.64843,116.90234 -25.52735,0.2461 c -13.99131,0.24706 -27.492015,0.74123 -29.701169,1.48242 -3.927385,0.98825 -4.417969,4.94126 -4.417969,38.29492 l 0,37.30664 27.246098,-1.48242 c 14.97315,-0.74119 27.73822,-1.97462 28.47461,-2.46875 0.49092,-0.74119 1.71674,-17.54346 2.45312,-37.30859 l 1.47266,-36.07032 z m 93.27539,0 -25.52735,0.2461 c -13.99131,0.24706 -27.49201,0.74123 -29.70117,1.48242 -3.92738,0.98825 -4.41797,4.94126 -4.41797,38.29492 l 0,37.30664 27.2461,-1.48242 c 14.97315,-0.74119 27.4915,-1.72853 27.98242,-2.22266 0.49092,-0.49413 1.47323,-17.04738 2.45508,-37.30664 l 1.96289,-36.31836 z m -5.09571,7.17774 -3.50195,63.03906 -45.5293,1.5 c 0,0 0.50031,-61.03779 0,-63.03906 l 49.03125,-1.5 z m -142.589839,1 47.529299,0 -2.50196,60.03711 -44.027339,3.00195 -1,-63.03906 z m -5.236329,117.82422 0,37.06054 0,37.0586 26.755858,0 c 16.44593,0 27.49081,-0.98735 28.47266,-2.7168 0.98184,-1.23532 2.20893,-18.03661 2.94531,-37.06055 l 1.47266,-34.34179 -29.94532,0 -29.701168,0 z m 93.275388,0 0,37.06054 0,37.0586 26.75586,0 c 14.97316,0 27.4915,-0.74125 27.98242,-1.97657 0.73639,-0.98825 1.96347,-17.54052 2.94532,-37.05859 l 1.96289,-35.08398 -29.94531,0 -29.70118,0 z m 5.51953,7.2539 49.03125,0.50196 -7.0039,61.0371 -41.02735,-0.5 -1,-61.03906 z m -92.558589,0.50196 46.029299,0.5 1.5,25.01562 -3.00196,35.02148 -44.527339,1.00196 0,-61.53906 z" />
        <path
           inkscape:connector-curvature="0"
           id="path8878"
           transform="matrix(4.0739576,0,0,-4.0475316,-29.443746,3948.442)"
           d="m 83.320312,641.98242 0,38.54102 0,38.54297 27.736328,-1.73047 c 14.97316,-0.98826 27.73759,-2.22364 28.22852,-2.47071 0.49092,-0.49412 1.4726,-17.04736 2.20898,-36.8125 l 1.47266,-36.07031 -29.69922,0 -29.947268,0 z m 93.275388,0 0,38.54102 0,38.29492 27.73633,-1.72852 c 14.97316,-0.98825 27.73891,-1.72949 27.98438,-1.97656 0,0 0.98104,-16.55324 1.96289,-36.8125 l 1.96289,-36.31836 -29.94531,0 -29.70118,0 z m -41.00976,7.33008 -1,60.03906 -43.027346,3.00196 -1.501953,-62.03907 45.529299,-1.00195 z m 47.02929,1.00195 49.03125,1.5 -2.00195,30.51953 -6.50391,27.51758 -39.52539,2.00196 -1,-61.53907 z" />
      </g>
    </g>
  </g>
</svg>
