<?xml version="1.0" encoding="UTF-8"?>
<svg width="300px" height="150px" viewBox="0 0 300 150" version="1.1" xmlns="http://www.w3.org/2000/svg" xmlns:xlink="http://www.w3.org/1999/xlink">
    <!-- Generator: Sketch 57.1 (83088) - https://sketch.com -->
    <title>marriott-logo</title>
    <desc>Created with Sketch.</desc>
    <defs>
        <polygon id="path-1" points="0.0509707992 0.238839041 18.315 0.238839041 18.315 11.610863 0.0509707992 11.610863"></polygon>
        <polygon id="path-3" points="0.0152151639 0.115502055 123.636647 0.115502055 123.636647 91.9583384 0.0152151639 91.9583384"></polygon>
    </defs>
    <g id="marriott-logo" stroke="none" stroke-width="1" fill="none" fill-rule="evenodd">
        <g id="marriott" transform="translate(88.000000, 29.000000)">
            <polyline id="Fill-1" fill="#1A1919" points="24.0960015 81.1549788 25.997897 81.1549788 29.2585067 86.2567829 32.469667 81.1549788 34.3708017 81.1549788 34.8906532 91.9583384 32.892395 91.9583384 32.5348386 84.4754733 29.6804739 88.8812322 28.721665 88.8812322 25.8513243 84.5884479 25.4947823 91.9583384 23.5766573 91.9583384 24.0960015 81.1549788"></polyline>
            <path d="M45.5450717,87.5361514 L44.1145927,83.3411774 L42.6671235,87.5361514 L45.5450717,87.5361514 Z M43.1230712,81.1549788 L45.2354431,81.1549788 L49.3483555,91.9583384 L47.072167,91.9583384 L46.1298412,89.2216726 L42.0993443,89.2216726 L41.1567649,91.9583384 L39.0111732,91.9583384 L43.1230712,81.1549788 L43.1230712,81.1549788 Z" id="Fill-2" fill="#1A1919"></path>
            <path d="M57.7582838,86.0141527 C58.2776281,86.0141527 58.6803227,85.8625089 58.9691573,85.5602322 C59.2552024,85.2577027 59.3994928,84.8904719 59.3994928,84.458287 C59.3994928,83.9945096 59.2475948,83.6156527 58.944813,83.3250021 C58.6407633,83.0335932 58.2454226,82.8875096 57.7582838,82.8875096 L55.6086347,82.8875096 L55.6086347,86.0141527 L57.7582838,86.0141527 Z M53.6423284,81.1549788 L57.7425615,81.1549788 C58.4236936,81.1549788 59.0049129,81.2578438 59.480894,81.4628158 C59.9566214,81.6667767 60.3420722,81.9298788 60.6342034,82.2473199 C60.9268417,82.5657719 61.1401076,82.9145527 61.2760297,83.2926514 C61.4116983,83.6704973 61.4796593,84.0324205 61.4796593,84.3771575 C61.4796593,85.0575329 61.3308043,85.6605699 61.0323335,86.1842466 C60.7343699,86.7074178 60.2776614,87.1257021 59.6594185,87.4396048 L62.1625666,91.9583384 L59.8546798,91.9583384 L57.6611603,87.6979048 L55.6086347,87.6979048 L55.6086347,91.9583384 L53.6423284,91.9583384 L53.6423284,81.1549788 L53.6423284,81.1549788 Z" id="Fill-3" fill="#1A1919"></path>
            <path d="M70.9059606,86.0141527 C71.425812,86.0141527 71.8300282,85.8625089 72.1163268,85.5602322 C72.404147,85.2577027 72.5484375,84.8904719 72.5484375,84.458287 C72.5484375,83.9945096 72.3947643,83.6156527 72.0929969,83.3250021 C71.7889472,83.0335932 71.3923386,82.8875096 70.9059606,82.8875096 L68.7575794,82.8875096 L68.7575794,86.0141527 L70.9059606,86.0141527 Z M66.7912731,81.1549788 L70.8899846,81.1549788 C71.5723847,81.1549788 72.1518289,81.2578438 72.6280635,81.4628158 C73.1050589,81.6667767 73.4910169,81.9298788 73.7823873,82.2473199 C74.074772,82.5657719 74.2887987,82.9145527 74.4244672,83.2926514 C74.5603893,83.6704973 74.6270825,84.0324205 74.6270825,84.3771575 C74.6270825,85.0575329 74.4782275,85.6605699 74.1810246,86.1842466 C73.8825538,86.7074178 73.4248309,87.1257021 72.8063345,87.4396048 L75.3104969,91.9583384 L73.0028637,91.9583384 L70.8083299,87.6979048 L68.7575794,87.6979048 L68.7575794,91.9583384 L66.7912731,91.9583384 L66.7912731,81.1549788 L66.7912731,81.1549788 Z" id="Fill-4" fill="#1A1919"></path>
            <g id="Group-8" transform="translate(80.386783, 80.623973)">
                <mask id="mask-2" fill="white">
                    <use xlink:href="#path-1"></use>
                </mask>
                <g id="Clip-6"></g>
                <polygon id="Fill-5" fill="#1A1919" mask="url(#mask-2)" points="0.0509707992 11.3343658 2.09893186 11.3343658 2.09893186 0.531006164 0.0509707992 0.531006164"></polygon>
                <path d="M12.6747387,9.69913973 C13.2052408,9.69913973 13.6880686,9.59551644 14.1214472,9.39155548 C14.5543186,9.18582534 14.9227792,8.90781164 15.2275897,8.55675616 C15.5301178,8.20544795 15.7636706,7.79828425 15.9257121,7.33349589 C16.0885143,6.86896027 16.1686475,6.38344726 16.1686475,5.87544041 C16.1686475,5.35757671 16.0885143,4.86877808 15.9257121,4.40980274 C15.7636706,3.95108014 15.5301178,3.54897123 15.2275897,3.20271781 C14.9227792,2.8572226 14.5543186,2.58502192 14.1214472,2.38485205 C13.6880686,2.18544041 13.2052408,2.08510274 12.6747387,2.08510274 C12.1333325,2.08510274 11.6479687,2.18544041 11.2204226,2.38485205 C10.7931301,2.58502192 10.4266983,2.8572226 10.1236629,3.20271781 C9.81961322,3.54897123 9.58758197,3.95108014 9.42528689,4.40980274 C9.26248463,4.86877808 9.18032275,5.35757671 9.18032275,5.87544041 C9.18032275,6.38344726 9.26248463,6.86896027 9.42528689,7.33349589 C9.58758197,7.79828425 9.81961322,8.20544795 10.1236629,8.55675616 C10.4266983,8.90781164 10.7931301,9.18582534 11.2204226,9.39155548 C11.6479687,9.59551644 12.1333325,9.69913973 12.6747387,9.69913973 Z M12.6747387,11.6260274 C11.884311,11.6260274 11.1473899,11.4781747 10.4649898,11.179689 C9.78132172,10.8837308 9.1866624,10.4763144 8.67771516,9.95743973 C8.16800717,9.43957603 7.7670876,8.8350226 7.47394211,8.14302123 C7.18130379,7.45354726 7.0354918,6.71276712 7.0354918,5.92421918 C7.0354918,5.13567123 7.18130379,4.39666027 7.47394211,3.70541712 C7.7670876,3.01417397 8.1657249,2.41265342 8.67061475,1.89933904 C9.17246158,1.38602466 9.76762807,0.981641096 10.456875,0.684166438 C11.1458683,0.38719726 11.884311,0.238839041 12.6747387,0.238839041 C13.4661808,0.238839041 14.2028484,0.38719726 14.885502,0.684166438 C15.5689165,0.981641096 16.1638294,1.38602466 16.6742982,1.89933904 C17.1832454,2.41265342 17.584165,3.01417397 17.8765497,3.70541712 C18.1676665,4.39666027 18.315,5.13567123 18.315,5.92421918 C18.315,6.71276712 18.1676665,7.45354726 17.8765497,8.14302123 C17.584165,8.8350226 17.1832454,9.43957603 16.6742982,9.95743973 C16.1638294,10.4763144 15.5689165,10.8837308 14.885502,11.179689 C14.2028484,11.4781747 13.4661808,11.6260274 12.6747387,11.6260274 L12.6747387,11.6260274 Z" id="Fill-7" fill="#1A1919" mask="url(#mask-2)"></path>
            </g>
            <polyline id="Fill-9" fill="#1A1919" points="105.049296 82.9524637 101.377877 82.9524637 101.377877 81.1549788 110.770704 81.1549788 110.770704 82.9524637 107.098017 82.9524637 107.098017 91.9583384 105.049296 91.9583384 105.049296 82.9524637"></polyline>
            <g id="Group-13">
                <mask id="mask-4" fill="white">
                    <use xlink:href="#path-3"></use>
                </mask>
                <g id="Clip-11"></g>
                <polyline id="Fill-10" fill="#1A1919" mask="url(#mask-4)" points="117.914985 82.9524637 114.242298 82.9524637 114.242298 81.1549788 123.636647 81.1549788 123.636647 82.9524637 119.962946 82.9524637 119.962946 91.9583384 117.914985 91.9583384 117.914985 82.9524637"></polyline>
                <path d="M78.9798873,70.3546521 L97.2596388,70.3546521 L66.6690446,1.22351301 L51.3288627,8.29163219 L62.0213192,32.3557397 L57.0322669,43.567274 L37.8984375,0.115502055 L22.3929175,6.84570822 L34.846022,34.6109363 C34.8300461,34.6478363 34.8130558,34.684989 34.7975871,34.721889 C27.1126614,52.232961 17.6830635,57.0395651 16.7640676,57.385313 C14.5776486,58.2304747 12.2294416,58.702087 9.74429816,58.702087 C8.98937244,58.702087 8.23901127,58.6586158 7.51679816,58.5901233 L0,73.8338671 C2.48717213,75.1989144 5.26622182,75.9763418 8.23901127,75.9763418 C12.0032428,75.9763418 15.4408555,74.7366534 18.2957275,72.6839014 L18.2691009,72.7405151 C18.2691009,72.7405151 25.3608888,69.3260014 32.949959,50.646261 C32.949959,50.6295801 35.7383914,44.6621425 37.2302382,40.8675082 L37.3801076,40.436587 L50.7342034,70.3546521 L69.0017828,70.3546521 L59.5942469,49.310026 L64.5835528,38.1131507 L78.9798873,70.3546521" id="Fill-12" fill="#9D1535" mask="url(#mask-4)"></path>
            </g>
        </g>
    </g>
</svg>